<?xml version="1.0" encoding="utf-8"?>
<!-- Generator: Adobe Illustrator 27.5.0, SVG Export Plug-In . SVG Version: 6.00 Build 0)  -->
<svg version="1.1" xmlns="http://www.w3.org/2000/svg" xmlns:xlink="http://www.w3.org/1999/xlink" x="0px" y="0px"
	 viewBox="0 0 3710 3710" style="enable-background:new 0 0 3710 3710;" xml:space="preserve">
<g id="Background">
	<g>
		<g>
			<rect style="fill:#FFFFFF;" width="3710" height="3710"/>
		</g>
	</g>
</g>
<g id="Illustration">
	<g>
		
			<linearGradient id="SVGID_1_" gradientUnits="userSpaceOnUse" x1="-737.3035" y1="3996.2498" x2="-3151.9753" y2="997.3789" gradientTransform="matrix(-1 0 0 1 -598.144 0)">
			<stop  offset="0" style="stop-color:#DAE3FE"/>
			<stop  offset="1" style="stop-color:#E9EFFD"/>
		</linearGradient>
		<path style="fill:url(#SVGID_1_);" d="M803.451,2813.604c55.464,58.39,107.944,96.045,149.407,125.795
			c487.39,349.708,1064.103,247.77,1186.671,222.875c180.994-36.761,530.851-107.819,783.792-405.271
			c382.678-450.021,323.089-1159.018,26.258-1627.036c-54.295-85.609-341.097-560.755-924.021-636.954
			c-352.779-46.115-764.006,46.893-1061.806,296.39C338.644,1313.119,383.145,2371.118,803.451,2813.604z"/>
		<g>
			<path style="fill:#91B3FA;" d="M2515.098,1803.066c29.497-121.627,95.844-221.663,178.31-283.623
				c73.719-55.389,123.974-136.969,138.407-228.042c1.518-9.572,3.441-19.202,5.782-28.858
				c35.477-146.277,153.641-243.174,263.928-216.425c110.288,26.748,170.934,167.012,135.458,313.287
				c-7.253,29.911-17.967,57.75-31.365,82.887c-42.758,80.222-55.24,173.626-31.469,261.368
				c21.246,78.411,23.101,168.298,0.986,259.485c-32.983,135.998-112.038,245.01-208.185,303.975
				c-36.367,22.303-68.567,51.083-94.543,84.924c-43.171,56.234-107.412,85.854-169.331,70.838
				c-66.795-16.201-112.192-79.813-120.455-157.274c-4.676-43.833-17.904-86.17-37.443-125.685
				C2499.051,2046.637,2485.273,1926.035,2515.098,1803.066z"/>
			<path style="opacity:0.57;fill:#FFFFFF;" d="M3025.168,1192.361c-37.854,93.179-72.691,187.499-106.546,282.181
				c-8.474,23.667-16.568,47.467-24.738,71.24l-12.249,35.663l-11.952,35.766c-7.875,23.874-16.08,47.639-23.686,71.603
				l-22.823,71.889c-14.606,48.119-29.617,96.111-43.328,144.502c-6.889,24.182-14.249,48.228-20.648,72.553l-19.532,72.867
				c-25.061,97.413-47.691,195.501-65.326,294.54l4.251,0.799l16.009-73.599l3.961-18.402l4.419-18.304l8.907-36.587l8.837-36.596
				c2.923-12.204,6.299-24.3,9.427-36.455c6.418-24.268,12.642-48.584,19.216-72.809c26.921-96.737,55.123-193.116,85.305-288.902
				c15.457-47.778,30.503-95.684,46.291-143.358l11.743-35.786l12.042-35.688c8.014-23.798,16.029-47.595,24.282-71.311
				c16.104-47.572,32.548-95.033,49.378-142.358c16.584-47.413,33.616-94.681,50.787-141.875L3025.168,1192.361z"/>
		</g>
		<g>
			<path style="fill:#BDD0FB;" d="M1879.047,1721.624c14.254-148.668,75.811-278.061,162.929-365.196
				c77.878-77.894,123.517-182.763,125.128-292.791c0.169-11.565,0.81-23.266,1.941-35.07
				c17.143-178.8,140.593-313.242,275.735-300.285c135.142,12.957,230.798,168.406,213.655,347.205
				c-3.505,36.562-11.46,71.259-23.051,103.219c-36.993,101.997-35.896,214.45,7.168,314.085
				c38.485,89.041,55.962,194.916,45.276,306.376c-15.939,166.237-91.019,308.38-194.845,394.29
				c-39.272,32.496-72.507,71.937-97.517,116.305c-41.56,73.73-112.594,119.58-188.465,112.306
				c-81.849-7.848-146.417-75.322-169.37-165.433c-12.988-50.994-35.849-98.772-65.704-142.151
				C1901.451,2012.08,1864.635,1871.936,1879.047,1721.624z"/>
			<path style="opacity:0.57;fill:#FFFFFF;" d="M2379.222,913.954c-28.984,116.475-54.202,233.788-78.195,351.364
				c-6.011,29.391-11.549,58.875-17.182,88.342l-8.442,44.2l-8.073,44.271c-5.268,29.535-10.943,58.998-15.876,88.594
				l-14.806,88.782c-9.113,59.313-18.731,118.547-26.741,178.03c-4.047,29.733-8.673,59.382-12.116,89.2l-10.74,89.383
				c-13.116,119.316-23.239,239.017-27.286,358.997l5.169,0.226l6.446-89.653l1.563-22.409l2.122-22.37l4.328-44.728l4.243-44.727
				c1.387-14.91,3.329-29.771,4.966-44.658c3.473-29.754,6.71-59.532,10.376-89.261c15.434-118.83,32.445-237.454,51.902-355.714
				c10.18-59.055,19.854-118.192,30.445-177.18l7.822-44.26l8.193-44.196c5.444-29.467,10.89-58.935,16.632-88.348
				c10.982-58.921,22.386-117.769,34.271-176.521c11.576-58.814,23.71-117.534,36.02-176.189L2379.222,913.954z"/>
		</g>
		<g>
			<path style="fill:#7D97F4;" d="M653.605,3163.792h667.444c29.795,0,53.949-24.154,53.949-53.949V2444.64
				c0-29.795-24.154-53.949-53.949-53.949H599.656v719.152C599.656,3139.638,623.81,3163.792,653.605,3163.792z"/>
			
				<linearGradient id="SVGID_00000070838753076119917120000004128071595519009971_" gradientUnits="userSpaceOnUse" x1="2919.2092" y1="856.8574" x2="2787.2954" y2="1487.5724" gradientTransform="matrix(-1 0 0 1 3814.6841 0)">
				<stop  offset="0" style="stop-color:#FEBBBA"/>
				<stop  offset="1" style="stop-color:#FF928E"/>
			</linearGradient>
			<path style="fill:url(#SVGID_00000070838753076119917120000004128071595519009971_);" d="M502.71,2393.872h916.11l403.779-673.81
				H698.859l-232.237,617.293C454.394,2363.72,473.647,2393.872,502.71,2393.872z"/>
			<path style="fill:#7D97F4;" d="M3027.286,3176.66h-665.603v-796.567h738.804v723.366
				C3100.487,3143.887,3067.714,3176.66,3027.286,3176.66z"/>
			
				<linearGradient id="SVGID_00000110438749135142076500000005545765465150871229_" gradientUnits="userSpaceOnUse" x1="2613.8765" y1="1852.8386" x2="3238.958" y2="148.9906">
				<stop  offset="0" style="stop-color:#4F52FF"/>
				<stop  offset="1" style="stop-color:#4042E2"/>
			</linearGradient>
			<path style="fill:url(#SVGID_00000110438749135142076500000005545765465150871229_);" d="M3206.338,2393.872h-872.937
				l-488.064-673.81l1174.097,18.905l221.292,599.974C3252.378,2364.566,3234.032,2393.872,3206.338,2393.872z"/>
			<g>
				<defs>
					<path id="SVGID_00000115495614454571943960000016520375436550773634_" d="M502.71,2393.872h916.11l403.779-673.81H698.859
						l-232.237,617.293C454.394,2363.72,473.647,2393.872,502.71,2393.872z"/>
				</defs>
				
					<linearGradient id="SVGID_00000060031923272583563550000004719778425463572366_" gradientUnits="userSpaceOnUse" x1="462.8825" y1="2056.9666" x2="1822.5989" y2="2056.9666">
					<stop  offset="0" style="stop-color:#E1473D"/>
					<stop  offset="1" style="stop-color:#E9605A"/>
				</linearGradient>
				
					<use xlink:href="#SVGID_00000115495614454571943960000016520375436550773634_"  style="overflow:visible;fill:url(#SVGID_00000060031923272583563550000004719778425463572366_);"/>
				<clipPath id="SVGID_00000118356918781864834550000012162955947312060094_">
					<use xlink:href="#SVGID_00000115495614454571943960000016520375436550773634_"  style="overflow:visible;"/>
				</clipPath>
				<g style="clip-path:url(#SVGID_00000118356918781864834550000012162955947312060094_);">
					
						<linearGradient id="SVGID_00000082346450784446797620000000788395591786322611_" gradientUnits="userSpaceOnUse" x1="1005.5438" y1="1014.8508" x2="958.4999" y2="1395.6838">
						<stop  offset="0" style="stop-color:#FF928E"/>
						<stop  offset="1" style="stop-color:#FE7062"/>
					</linearGradient>
					<polygon style="fill:url(#SVGID_00000082346450784446797620000000788395591786322611_);" points="478.636,2393.982 
						1196.429,2393.982 1196.429,2355.916 478.636,2355.916 					"/>
					
						<linearGradient id="SVGID_00000023969454785950176400000014920916876238114739_" gradientUnits="userSpaceOnUse" x1="1010.6572" y1="1015.4783" x2="963.6133" y2="1396.3113">
						<stop  offset="0" style="stop-color:#FF928E"/>
						<stop  offset="1" style="stop-color:#FE7062"/>
					</linearGradient>
					<polygon style="fill:url(#SVGID_00000023969454785950176400000014920916876238114739_);" points="504.726,2330.398 
						1196.429,2330.398 1196.429,2292.333 504.726,2292.333 					"/>
					
						<linearGradient id="SVGID_00000020369910207728968030000007244251265039540135_" gradientUnits="userSpaceOnUse" x1="1013.2612" y1="1015.7968" x2="966.2173" y2="1396.6306">
						<stop  offset="0" style="stop-color:#FF928E"/>
						<stop  offset="1" style="stop-color:#FE7062"/>
					</linearGradient>
					<polygon style="fill:url(#SVGID_00000020369910207728968030000007244251265039540135_);" points="526.71,2262.816 
						1196.429,2262.816 1196.429,2224.75 526.71,2224.75 					"/>
					
						<linearGradient id="SVGID_00000026851403963929086960000018054000099947116734_" gradientUnits="userSpaceOnUse" x1="1018.3813" y1="1016.43" x2="971.3375" y2="1397.2631">
						<stop  offset="0" style="stop-color:#FF928E"/>
						<stop  offset="1" style="stop-color:#FE7062"/>
					</linearGradient>
					<polygon style="fill:url(#SVGID_00000026851403963929086960000018054000099947116734_);" points="552.815,2199.232 
						1196.429,2199.232 1196.429,2161.166 552.815,2161.166 					"/>
					
						<linearGradient id="SVGID_00000031197750678836799690000015641880471308561821_" gradientUnits="userSpaceOnUse" x1="1029.1908" y1="1017.7638" x2="982.147" y2="1398.5967">
						<stop  offset="0" style="stop-color:#FF928E"/>
						<stop  offset="1" style="stop-color:#FE7062"/>
					</linearGradient>
					<polygon style="fill:url(#SVGID_00000031197750678836799690000015641880471308561821_);" points="574.799,2126.792 
						1214.291,2126.792 1214.291,2088.727 574.799,2088.727 					"/>
					
						<linearGradient id="SVGID_00000047025257857268345150000017655328650886761882_" gradientUnits="userSpaceOnUse" x1="1033.6958" y1="1018.3205" x2="986.652" y2="1399.1532">
						<stop  offset="0" style="stop-color:#FF928E"/>
						<stop  offset="1" style="stop-color:#FE7062"/>
					</linearGradient>
					<polygon style="fill:url(#SVGID_00000047025257857268345150000017655328650886761882_);" points="599.656,2063.208 
						1214.291,2063.208 1214.291,2025.143 599.656,2025.143 					"/>
					
						<linearGradient id="SVGID_00000037676340565455060940000000025753360015065220_" gradientUnits="userSpaceOnUse" x1="1056.5179" y1="1021.139" x2="1009.4741" y2="1401.9727">
						<stop  offset="0" style="stop-color:#FF928E"/>
						<stop  offset="1" style="stop-color:#FE7062"/>
					</linearGradient>
					<polygon style="fill:url(#SVGID_00000037676340565455060940000000025753360015065220_);" points="625.636,1995.464 
						1251.388,1995.464 1251.388,1957.398 625.636,1957.398 					"/>
					
						<linearGradient id="SVGID_00000140730708639538642880000007931805909143538823_" gradientUnits="userSpaceOnUse" x1="1056.2247" y1="1021.1036" x2="1009.1808" y2="1401.937">
						<stop  offset="0" style="stop-color:#FF928E"/>
						<stop  offset="1" style="stop-color:#FE7062"/>
					</linearGradient>
					<polygon style="fill:url(#SVGID_00000140730708639538642880000007931805909143538823_);" points="640.749,1931.88 
						1251.388,1931.88 1251.388,1893.814 640.749,1893.814 					"/>
					
						<linearGradient id="SVGID_00000154385778789841406770000006844166498873944752_" gradientUnits="userSpaceOnUse" x1="1085.1289" y1="1024.6724" x2="1038.0851" y2="1405.5059">
						<stop  offset="0" style="stop-color:#FF928E"/>
						<stop  offset="1" style="stop-color:#FE7062"/>
					</linearGradient>
					<polygon style="fill:url(#SVGID_00000154385778789841406770000006844166498873944752_);" points="668.229,1863.563 
						1299.477,1863.563 1299.477,1825.497 668.229,1825.497 					"/>
					
						<linearGradient id="SVGID_00000082368544276292466060000006186770671563396025_" gradientUnits="userSpaceOnUse" x1="1025.3086" y1="1017.2838" x2="978.2648" y2="1398.1165">
						<stop  offset="0" style="stop-color:#FF928E"/>
						<stop  offset="1" style="stop-color:#FE7062"/>
					</linearGradient>
					<polygon style="fill:url(#SVGID_00000082368544276292466060000006186770671563396025_);" points="532.84,1799.979 
						1329.108,1799.979 1329.108,1761.913 532.84,1761.913 					"/>
				</g>
				
					<linearGradient id="SVGID_00000032646045752442893490000015301714371640771492_" gradientUnits="userSpaceOnUse" x1="1850.2778" y1="1476.3315" x2="3364.303" y2="2591.9309" gradientTransform="matrix(-1.2523 -0.4479 -0.3368 0.9416 4914.8496 1227.6417)">
					<stop  offset="0" style="stop-color:#FF928E"/>
					<stop  offset="1" style="stop-color:#FE7062"/>
				</linearGradient>
				
					<polygon style="clip-path:url(#SVGID_00000118356918781864834550000012162955947312060094_);fill:url(#SVGID_00000032646045752442893490000015301714371640771492_);" points="
					453.115,2405.01 487.527,2417.317 757.247,1663.163 722.834,1650.856 				"/>
				
					<linearGradient id="SVGID_00000063629263669156576890000016415624982987536802_" gradientUnits="userSpaceOnUse" x1="1094.0516" y1="1025.7726" x2="1047.0077" y2="1406.6067">
					<stop  offset="0" style="stop-color:#FF928E"/>
					<stop  offset="1" style="stop-color:#FE7062"/>
				</linearGradient>
				
					<polygon style="clip-path:url(#SVGID_00000118356918781864834550000012162955947312060094_);fill:url(#SVGID_00000063629263669156576890000016415624982987536802_);" points="
					812.413,2439.709 848.225,2452.517 1117.944,1698.363 1082.132,1685.555 				"/>
			</g>
			
				<linearGradient id="SVGID_00000103227930610262971350000013839093049461456000_" gradientUnits="userSpaceOnUse" x1="1600.4581" y1="408.0579" x2="1398.8395" y2="1160.7665">
				<stop  offset="0" style="stop-color:#FF928E"/>
				<stop  offset="1" style="stop-color:#FE7062"/>
			</linearGradient>
			<path style="fill:url(#SVGID_00000103227930610262971350000013839093049461456000_);" d="M693.363,1738.909l1103.468,10.804
				l24.467-77.71c1.111-3.528-2.301-6.935-6.943-6.935H765.709c-39.956,0-72.347,20.045-72.347,44.772V1738.909z"/>
			<path style="fill:#BDD0FB;" d="M2659.308,2373.796c-3.688,0-6.694-2.977-6.72-6.671c-0.026-3.711,2.96-6.742,6.671-6.77
				l514.881-3.777c4.663-0.035,8.88-2.237,11.571-6.041c2.694-3.807,3.364-8.519,1.844-12.926l-159.497-462.427
				c-1.211-3.51,0.653-7.336,4.161-8.545c3.515-1.219,7.338,0.655,8.545,4.161l159.496,462.427c2.95,8.55,1.647,17.688-3.577,25.071
				c-5.221,7.384-13.402,11.656-22.446,11.722l-514.881,3.777C2659.341,2373.796,2659.325,2373.796,2659.308,2373.796z"/>
			<g>
				<path style="fill:#91B3FA;" d="M2577.262,3156.945V2010.292c0-12.294-6.611-23.639-17.308-29.7l-714.155-404.667
					c-10.853-6.15-24.195-5.89-34.8,0.677l-685.444,424.416c-10.05,6.223-16.166,17.203-16.166,29.024v1133.312
					c0,18.914,15.379,34.223,34.293,34.137l1399.6-6.408C2562.073,3190.995,2577.262,3175.737,2577.262,3156.945z"/>
				
					<linearGradient id="SVGID_00000121241538636022464080000007057268442433415329_" gradientUnits="userSpaceOnUse" x1="1769.7644" y1="4220.1465" x2="1800.0105" y2="3292.6101">
					<stop  offset="0" style="stop-color:#4F52FF"/>
					<stop  offset="1" style="stop-color:#4042E2"/>
				</linearGradient>
				<path style="fill:url(#SVGID_00000121241538636022464080000007057268442433415329_);" d="M1855.144,1447.783l841.772,533.213
					c12.999,8.234,15.604,23.092,5.93,33.825v0c-37.656,41.779-111.929,49.768-162.265,17.454l-690.687-443.4
					c-11.682-7.499-28.437-7.359-39.916,0.335l-669.357,448.624c-44.156,29.595-110.413,24.459-146.503-11.355l-11.626-11.538
					c-10.741-10.659-8.619-26.192,4.752-34.781l828.618-532.254C1827.817,1440.228,1843.141,1440.179,1855.144,1447.783z"/>
				<g>
					<path style="fill:#FFFFFF;" d="M2009.733,2618.324h-362.384c-20.516,0-37.206-16.69-37.206-37.206v-490.493
						c0-0.205,0.01-0.412,0.03-0.615c12.749-138.581,123.366-200.537,223.112-200.537c2.057,0,4.109,0.026,6.153,0.079
						c98.256,2.522,206.485,66.435,211.916,200.801l0.007,486.345C2051.359,2599.65,2032.687,2618.324,2009.733,2618.324z
						 M1623.583,2090.937v490.181c0,13.103,10.662,23.765,23.765,23.765h362.384c15.542,0,28.185-12.644,28.185-28.185v-486.073
						c-5.08-125.458-106.627-185.27-198.826-187.637C1743.993,1900.599,1635.948,1958.331,1623.583,2090.937z"/>
					<path style="fill:#7D97F4;" d="M1815.947,2195.938h-166.255c-4.63,0-8.383,3.753-8.383,8.383v157.872
						c0,3.858,3.127,6.986,6.985,6.986h162.762c5.787,0,10.478-4.691,10.478-10.478v-157.174
						C1821.535,2198.44,1819.033,2195.938,1815.947,2195.938z"/>
					<path style="fill:#7D97F4;" d="M2008.048,2172.187c5.015,0,9.081-4.066,9.081-9.081v-65.074
						c-4.073-107.454-82.012-165.237-165.889-172.548c-3.941-0.344-7.351,2.716-7.351,6.672v230.251c0,5.401,4.379,9.78,9.78,9.78
						H2008.048z"/>
					<path style="fill:#7D97F4;" d="M1641.309,2400.613v131.604c0,13.295,10.877,24.172,24.172,24.172h148.37
						c4.244,0,7.684-3.44,7.684-7.684v-148.092c0-4.244-3.44-7.684-7.684-7.684h-164.858
						C1644.75,2392.929,1641.309,2396.369,1641.309,2400.613z"/>
					<path style="fill:#7D97F4;" d="M1813.84,1925.59c-83.83,7.741-163.041,64.958-172.53,172.442v66.471
						c0,4.244,3.44,7.684,7.684,7.684h166.255c3.472,0,6.287-2.815,6.287-6.287v-233.388
						C1821.535,1928.378,1817.956,1925.21,1813.84,1925.59z"/>
					<path style="fill:#7D97F4;" d="M1843.889,2205.019v155.777c0,4.629,3.753,8.383,8.383,8.383h155.777
						c5.015,0,9.081-4.066,9.081-9.081v-154.379c0-5.401-4.379-9.78-9.78-9.78H1852.97
						C1847.954,2195.938,1843.889,2200.003,1843.889,2205.019z"/>
					<path style="fill:#7D97F4;" d="M1853.668,2556.389h140.892c12.464,0,22.568-10.104,22.568-22.568v-132.51
						c0-4.63-3.753-8.383-8.383-8.383h-159.269c-3.086,0-5.588,2.502-5.588,5.588v148.093
						C1843.889,2552.011,1848.267,2556.389,1853.668,2556.389z"/>
				</g>
				<path style="fill:#BDD0FB;" d="M999.853,2006.881c-2.202,0-4.355-1.078-5.644-3.062c-2.021-3.113-1.135-7.275,1.979-9.295
					l815.806-529.653c14.554-9.456,33.367-9.444,47.92,0.035l103.802,67.618c3.111,2.026,3.987,6.189,1.962,9.3
					c-2.028,3.109-6.192,3.99-9.3,1.962l-103.802-67.618c-10.104-6.58-23.155-6.588-33.265-0.025l-815.806,529.653
					C1002.376,2006.532,1001.106,2006.881,999.853,2006.881z"/>
				<path style="opacity:0.57;fill:#FFFFFF;" d="M1142.863,2811.876c-3.711,0-6.721-3.009-6.721-6.72v-604.855
					c0-3.711,3.009-6.721,6.721-6.721s6.721,3.009,6.721,6.721v604.855C1149.583,2808.867,1146.574,2811.876,1142.863,2811.876z"/>
			</g>
			<path style="fill:#91B3FA;" d="M2947.349,3045.208h-228.501c-26.647,0-48.249-21.602-48.249-48.25v-407.547
				c0-26.647,21.602-48.249,48.249-48.249h228.501c26.647,0,48.25,21.602,48.25,48.249v407.547
				C2995.599,3023.606,2973.997,3045.208,2947.349,3045.208z"/>
			<path style="fill:#91B3FA;" d="M994.071,3046.177H765.57c-26.647,0-48.249-21.602-48.249-48.249v-407.547
				c0-26.647,21.602-48.249,48.249-48.249h228.501c26.647,0,48.249,21.602,48.249,48.249v407.547
				C1042.32,3024.576,1020.718,3046.177,994.071,3046.177z"/>
		</g>
		<g>
			<path style="fill:#7D97F4;" d="M1364.503,1596.244c0,0,4.546,24.373,6.89,48.52c0.917,9.437-6.286,17.707-15.755,18.193
				c-32.17,1.647-100.987,4.91-125.701,4.043c-3.715-0.13-6.179-3.909-4.838-7.376l0,0c1.124-2.905,3.323-5.267,6.141-6.594
				l113.214-53.347L1364.503,1596.244z"/>
			
				<linearGradient id="SVGID_00000152256304944572117740000001109922656656592023_" gradientUnits="userSpaceOnUse" x1="25469.6621" y1="1417.624" x2="25506.6504" y2="1417.624" gradientTransform="matrix(-1 0.0095 0.0095 1 26824.2305 -63.4747)">
				<stop  offset="0" style="stop-color:#FEBBBA"/>
				<stop  offset="1" style="stop-color:#FF928E"/>
			</linearGradient>
			<path style="fill:url(#SVGID_00000152256304944572117740000001109922656656592023_);" d="M1367.899,1581.866l-3.186,29.235
				c0,0-19.831,9.463-33.534-0.849l7.938-32.622L1367.899,1581.866z"/>
			<path style="fill:#7D97F4;" d="M1495.433,1607.733c0,0,6.983,12.26,13.941,44.946c1.257,5.903-2.822,11.603-8.823,12.251
				c-10.617,1.147-26.964,2.646-40.07,2.681c-6.041,0.016-10.806-5.199-10.135-11.203c1.337-11.968,5.672-31.625,19.497-47.044
				L1495.433,1607.733z"/>
			
				<linearGradient id="SVGID_00000000913544238594744650000009062400689867505032_" gradientUnits="userSpaceOnUse" x1="25336.3574" y1="1415.7219" x2="25368.293" y2="1415.7219" gradientTransform="matrix(-1 0.0095 0.0095 1 26824.2305 -63.4747)">
				<stop  offset="0" style="stop-color:#FEBBBA"/>
				<stop  offset="1" style="stop-color:#FF928E"/>
			</linearGradient>
			<path style="fill:url(#SVGID_00000000913544238594744650000009062400689867505032_);" d="M1501.104,1570.115l-7.675,44.239
				c0,0-7.948,6.03-23.825,1.865l3.411-47.552L1501.104,1570.115z"/>
			
				<linearGradient id="SVGID_00000075860654184243692220000010639872214508480186_" gradientUnits="userSpaceOnUse" x1="1781.5446" y1="643.934" x2="2303.8428" y2="2153.5874" gradientTransform="matrix(1 0 0 1 -634.0933 0)">
				<stop  offset="0" style="stop-color:#09005D"/>
				<stop  offset="1" style="stop-color:#1A0F91"/>
			</linearGradient>
			<path style="fill:url(#SVGID_00000075860654184243692220000010639872214508480186_);" d="M1360.058,1032.88
				c1.569,7.612-0.291,410.116-38.559,577.619c-0.625,2.733,31.547,18.97,49.973,9.665c0,0,70.669-245.436,76.649-452.883
				c5.981-207.447-0.067-7.061-0.067-7.061l-5.89-128.139L1360.058,1032.88z"/>
			
				<linearGradient id="SVGID_00000155108918401242022460000015791012183464326303_" gradientUnits="userSpaceOnUse" x1="1873.0664" y1="612.27" x2="2395.3647" y2="2121.9238" gradientTransform="matrix(1 0 0 1 -634.0933 0)">
				<stop  offset="0" style="stop-color:#09005D"/>
				<stop  offset="1" style="stop-color:#1A0F91"/>
			</linearGradient>
			<path style="fill:url(#SVGID_00000155108918401242022460000015791012183464326303_);" d="M1517.946,1042.819
				c35.802,203.986-3.465,545.568-14.734,585.473c-0.195,0.058-26.977,4.166-43.886-3.315
				c-2.809-18.817,4.967-361.205-28.253-478.358c-1.593-5.619-5.08-10.499-9.872-13.837l-59.362-41.354l-5.167-67.713
				L1517.946,1042.819z"/>
			
				<linearGradient id="SVGID_00000077284688644149153600000004988662816072264065_" gradientUnits="userSpaceOnUse" x1="1549.3378" y1="1647.9467" x2="1784.5586" y2="1254.792" gradientTransform="matrix(1 0 0 1 -634.0933 0)">
				<stop  offset="0" style="stop-color:#FF928E"/>
				<stop  offset="1" style="stop-color:#FE7062"/>
			</linearGradient>
			<path style="fill:url(#SVGID_00000077284688644149153600000004988662816072264065_);" d="M1306.644,671.979
				c97.45-7.285,205.755,23.694,205.755,23.694c30.745,169.657,8.584,365.895,8.584,365.895
				c-75.451,20.558-161.082-10.592-161.082-10.592c-13.25-70.909-73.814-270.248-73.814-270.248
				c-9.065,67.896-87.251,142.983-119.81,125.083c24.43-28.87,4.361-97.324,9.212-118.91
				C1210.135,797.307,1257.23,675.673,1306.644,671.979z"/>
			
				<linearGradient id="SVGID_00000103986870441835134990000001823259673618969257_" gradientUnits="userSpaceOnUse" x1="1946.8835" y1="586.7313" x2="2469.1816" y2="2096.3843" gradientTransform="matrix(1 0 0 1 -634.0933 0)">
				<stop  offset="0" style="stop-color:#09005D"/>
				<stop  offset="1" style="stop-color:#1A0F91"/>
			</linearGradient>
			<path style="fill:url(#SVGID_00000103986870441835134990000001823259673618969257_);" d="M1431.793,784.078
				c0.446,0.099,0.828,0.385,1.049,0.786l95.153,90.755c0.612,0.584,1.047,1.336,1.195,2.169
				c3.265,18.366-5.073,189.838-7.701,187.256c9.405,12.5-156.755,13.705-159.786-2.456c0,0-57.041-204.155-56.196-205.281
				l15.256-82.661c0.127-2.303,2.118-4.044,4.418-3.876C1345.433,772.252,1431.793,784.078,1431.793,784.078z"/>
			
				<linearGradient id="SVGID_00000172408537568727546810000016211110802164035757_" gradientUnits="userSpaceOnUse" x1="1639.9072" y1="1702.1313" x2="1875.1284" y2="1308.9762" gradientTransform="matrix(1 0 0 1 -634.0933 0)">
				<stop  offset="0" style="stop-color:#FF928E"/>
				<stop  offset="1" style="stop-color:#FE7062"/>
			</linearGradient>
			<path style="fill:url(#SVGID_00000172408537568727546810000016211110802164035757_);" d="M1475.826,790.636l36.573-94.964
				c0,0,91.853,61.137,107.612,139.613c-17.232,1.435-48.567,6.219-79.133,22.02
				C1533.774,820.248,1475.826,790.636,1475.826,790.636z"/>
			
				<linearGradient id="SVGID_00000146475572427925598800000008970409027535735718_" gradientUnits="userSpaceOnUse" x1="25208.4023" y1="720.3051" x2="25447.5371" y2="720.3051" gradientTransform="matrix(-1 0.0095 0.0095 1 26824.2305 -63.4747)">
				<stop  offset="0" style="stop-color:#FEBBBA"/>
				<stop  offset="1" style="stop-color:#FF928E"/>
			</linearGradient>
			<path style="fill:url(#SVGID_00000146475572427925598800000008970409027535735718_);" d="M1396.923,880.42
				c0,0,103.016,56.93,137.117,7.154c7.079-10.336,8.699-20.556,6.837-30.267c30.566-15.801,61.901-20.586,79.133-22.02
				c4.751,23.659,2.599,48.889-11.085,74.499c-59.503,111.359-225.322-3.973-225.322-3.973L1396.923,880.42z"/>
			
				<linearGradient id="SVGID_00000167354260546837037330000006441507771234427557_" gradientUnits="userSpaceOnUse" x1="25392.0332" y1="464.6588" x2="25486.584" y2="464.6588" gradientTransform="matrix(-1 0.0095 0.0095 1 26824.2305 -63.4747)">
				<stop  offset="0" style="stop-color:#FEBBBA"/>
				<stop  offset="1" style="stop-color:#FF928E"/>
			</linearGradient>
			<path style="fill:url(#SVGID_00000167354260546837037330000006441507771234427557_);" d="M1404.854,591.714l31.946,89.608
				c0.529,1.484-0.067,3.14-1.439,3.916c-8.43,4.766-38.831,18.6-75.847-4.376c-3.856-2.394-6.503-6.332-7.128-10.827
				l-10.809-77.716L1404.854,591.714z"/>
			
				<linearGradient id="SVGID_00000032638246962380081170000002498507292403728256_" gradientUnits="userSpaceOnUse" x1="1925.8182" y1="594.0194" x2="2448.1147" y2="2103.6675" gradientTransform="matrix(1 0 0 1 -634.0933 0)">
				<stop  offset="0" style="stop-color:#09005D"/>
				<stop  offset="1" style="stop-color:#1A0F91"/>
			</linearGradient>
			<polygon style="fill:url(#SVGID_00000032638246962380081170000002498507292403728256_);" points="1322.91,670.672 
				1322.926,774.794 1346.63,776.49 1349.983,671.819 			"/>
			
				<linearGradient id="SVGID_00000106135437977334345160000002586024731702660784_" gradientUnits="userSpaceOnUse" x1="2014.1112" y1="563.4725" x2="2536.4082" y2="2073.1223" gradientTransform="matrix(1 0 0 1 -634.0933 0)">
				<stop  offset="0" style="stop-color:#09005D"/>
				<stop  offset="1" style="stop-color:#1A0F91"/>
			</linearGradient>
			<path style="fill:url(#SVGID_00000106135437977334345160000002586024731702660784_);" d="M1429.43,785.088
				c0,0,40.448-102.482,43.02-99.155l-27.974-3.327c-0.97-0.15-38.856,99.574-38.856,99.574L1429.43,785.088z"/>
			<g>
				
					<linearGradient id="SVGID_00000147937805160084773070000018090411579917406867_" gradientUnits="userSpaceOnUse" x1="5578.6152" y1="5041.7915" x2="5470.606" y2="5184.6787" gradientTransform="matrix(-0.9179 -0.3967 -0.3967 0.9179 8460.5156 -1872.4052)">
					<stop  offset="0" style="stop-color:#FEBBBA"/>
					<stop  offset="1" style="stop-color:#FF928E"/>
				</linearGradient>
				<path style="fill:url(#SVGID_00000147937805160084773070000018090411579917406867_);" d="M1320.618,533.437
					c-0.565,1.307-6.524,95.263-6.524,95.263l53.72,2.262l18.878-88.212C1386.692,542.75,1330.075,511.555,1320.618,533.437z"/>
				
					<linearGradient id="SVGID_00000127722903939943634100000011259929348947600568_" gradientUnits="userSpaceOnUse" x1="9296.2217" y1="386.9164" x2="9166.6543" y2="671.1898" gradientTransform="matrix(-0.9104 0.4137 0.4137 0.9104 9478.8193 -3769.1633)">
					<stop  offset="0" style="stop-color:#09005D"/>
					<stop  offset="1" style="stop-color:#1A0F91"/>
				</linearGradient>
				<path style="fill:url(#SVGID_00000127722903939943634100000011259929348947600568_);" d="M1367.831,553.112
					c1.678,1.709,2.472,4.083,2.156,6.458l-6.21,46.533c-0.095,0.706-0.276,1.386-0.563,2.038
					c-1.578,3.596-7.523,14.64-18.705,7.927c-9.531-5.721-18.368-10.848-25.693-11.374c-4.277-0.308-7.95,2.999-8.205,7.28
					c-0.526,8.818-1.228,26.631,0.37,42.545c0.401,3.989,3.838,6.973,7.845,6.882c10.576-0.24,31.214-1.328,47.941-5.967
					c2.748-0.762,4.843-2.965,5.473-5.746c2.773-12.237,10.687-46.506,14.41-55.836c3.576-8.961,12.159-7.257,19.265-11.089
					c7.206-3.885,9.211-13.93,9.738-21.628c0.961-14.037-0.591-34.6-12.292-44.18c-14.186-11.612-25.869,2.947-38.461-2.938
					c-17.286-8.078-40.009-1.351-54.41,10.549c-22.376,18.489,21.416,21.498,32.158,18.391
					C1353.101,539.936,1363.204,548.404,1367.831,553.112z"/>
				
					<linearGradient id="SVGID_00000183208592734452036740000011317577216177310891_" gradientUnits="userSpaceOnUse" x1="5420.4248" y1="5154.9463" x2="5507.0557" y2="5066.0649" gradientTransform="matrix(-0.9179 -0.3967 -0.3967 0.9179 8460.5156 -1872.4052)">
					<stop  offset="0" style="stop-color:#FEBBBA"/>
					<stop  offset="1" style="stop-color:#FF928E"/>
				</linearGradient>
				<path style="fill:url(#SVGID_00000183208592734452036740000011317577216177310891_);" d="M1384.185,611.021
					c0,0-2.248-28.638,9.065-32.436c11.313-3.799,24.601,3.366,16.352,21.435C1399.339,622.495,1384.185,611.021,1384.185,611.021z"
					/>
			</g>
			<g>
				
					<linearGradient id="SVGID_00000085947948684096661380000002426599862092187064_" gradientUnits="userSpaceOnUse" x1="1476.3212" y1="322.7951" x2="1424.2366" y2="403.4424">
					<stop  offset="0" style="stop-color:#FF928E"/>
					<stop  offset="1" style="stop-color:#FE7062"/>
				</linearGradient>
				<path style="fill:url(#SVGID_00000085947948684096661380000002426599862092187064_);" d="M1278.851,515.497
					c0,0,13.474-72.409,88.361-58.57c74.886,13.838,56.909,69.855,56.909,69.855L1278.851,515.497z"/>
				
					<linearGradient id="SVGID_00000000928024966306887110000013377147093121831574_" gradientUnits="userSpaceOnUse" x1="3372.3442" y1="1310.0878" x2="3511.2754" y2="1393.021" gradientTransform="matrix(-0.9952 -0.0979 -0.0979 0.9952 4865.7183 -518.5854)">
					<stop  offset="0" style="stop-color:#FF928E"/>
					<stop  offset="1" style="stop-color:#FE7062"/>
				</linearGradient>
				<path style="fill:url(#SVGID_00000000928024966306887110000013377147093121831574_);" d="M1407.402,473.448
					c0,0-96.096-33.212-108.684,43.591c-16.724-1.234-19.867-1.543-19.867-1.543s11.006-68.695,60.741-64.523
					C1389.326,455.145,1402.989,460.768,1407.402,473.448z"/>
				<path style="fill:#FFFFFF;" d="M1327.81,521.133c0.248,0.024,0.501-0.066,0.687-0.26l0.39-0.437
					c9.034-9.918,24.151-26.52,38.353-25.791c6.849,0.346,13.979,2.01,20.873,3.606c4.866,1.127,9.9,2.297,14.776,2.994
					c6.642,0.955,13.925,1.915,22.256,2.934l0.019,0.002c0.439,0.043,0.836-0.271,0.892-0.715c0.057-0.45-0.263-0.854-0.713-0.911
					c-8.324-1.018-15.589-1.976-22.217-2.93c-4.813-0.685-9.81-1.844-14.637-2.967c-6.975-1.617-14.222-3.267-21.164-3.648
					c-14.975-0.772-30.417,16.195-39.645,26.325l-0.396,0.43c-0.302,0.336-0.276,0.852,0.053,1.161
					C1327.472,521.048,1327.639,521.116,1327.81,521.133z"/>
				
					<linearGradient id="SVGID_00000009571401777175395100000003678864457351573675_" gradientUnits="userSpaceOnUse" x1="1881.3768" y1="267.8851" x2="1667.9979" y2="372.0541">
					<stop  offset="0" style="stop-color:#E1473D"/>
					<stop  offset="1" style="stop-color:#E9605A"/>
				</linearGradient>
				<path style="fill:url(#SVGID_00000009571401777175395100000003678864457351573675_);" d="M1427.368,536.572l-167.835-4.41
					c-1.057-0.027-1.982-0.719-2.308-1.725c-0.326-1.006,0.016-2.109,0.856-2.752c6.748-5.158,18.135-13.064,23.983-12.597
					c18.761,1.502,142.056,11.693,142.056,11.693S1427.208,527.085,1427.368,536.572z"/>
			</g>
			<g>
				
					<linearGradient id="SVGID_00000005248949813863454940000003415122415675356592_" gradientUnits="userSpaceOnUse" x1="2778.9731" y1="170.8466" x2="2234.604" y2="443.0318">
					<stop  offset="0" style="stop-color:#4F52FF"/>
					<stop  offset="1" style="stop-color:#4042E2"/>
				</linearGradient>
				<path style="fill:url(#SVGID_00000005248949813863454940000003415122415675356592_);" d="M1162.885,779.828l-108.845,289.314
					c-13.309,88.826,223.826,91.342,300.502,0l78.313-249.976c5.766-18.405-7.885-37.15-27.171-37.311L1162.885,779.828
					L1162.885,779.828z"/>
				
					<linearGradient id="SVGID_00000135659493645739094710000001340145761473312927_" gradientUnits="userSpaceOnUse" x1="1081.2316" y1="787.3514" x2="1640.6942" y2="61.5613">
					<stop  offset="0" style="stop-color:#4F52FF"/>
					<stop  offset="1" style="stop-color:#4042E2"/>
				</linearGradient>
				<path style="fill:url(#SVGID_00000135659493645739094710000001340145761473312927_);" d="M881.378,777.646L772.533,1066.96
					c-13.309,88.826,223.826,91.342,300.502,0l89.901-286.963L881.378,777.646L881.378,777.646z"/>
				
					<linearGradient id="SVGID_00000018236981833174864130000011512457970596304290_" gradientUnits="userSpaceOnUse" x1="1034.625" y1="119.8563" x2="843.0874" y2="583.5779">
					<stop  offset="0" style="stop-color:#4F52FF"/>
					<stop  offset="1" style="stop-color:#4042E2"/>
				</linearGradient>
				<path style="fill:url(#SVGID_00000018236981833174864130000011512457970596304290_);" d="M887.26,777.815
					c-0.442,1.411-29.445-0.252-31.454-0.269c-24.607-0.21-49.215-0.42-73.822-0.631c-33.467-0.286-66.935-0.572-100.402-0.858
					c-13.366-0.114-26.732-0.228-40.099-0.343c-9.703-0.083-26.564-3.369-32.695,5.936c-4.555,6.924-7.198,20.086-10.515,28.417
					c-5.079,12.757-10.159,25.514-15.238,38.271c-12.497,31.387-24.995,62.773-37.492,94.16
					c-16.229,40.76-32.459,81.52-48.688,122.28c-13.309,88.826,223.826,91.342,300.502,0
					C797.359,1064.778,887.132,778.225,887.26,777.815z"/>
			</g>
			
				<linearGradient id="SVGID_00000071522671957507483980000014078066036646518154_" gradientUnits="userSpaceOnUse" x1="25146.1094" y1="889.8174" x2="25220.873" y2="889.8174" gradientTransform="matrix(-1 0 0 1 26555.9414 0)">
				<stop  offset="0" style="stop-color:#FEBBBA"/>
				<stop  offset="1" style="stop-color:#FF928E"/>
			</linearGradient>
			<path style="fill:url(#SVGID_00000071522671957507483980000014078066036646518154_);" d="M1404.418,923.043
				c0,0,7.818-32.144,4.664-43.548c-3.153-11.404-9.263-26.066-29.627-22.808c-20.365,3.258-44.386,11.837-44.386,11.837
				s1.213,14.854,16.691,10.062l-9.598,7.427c0,0,1.372,11.893,14.445,5.539l-8.927,9.849c0,0,5.615,9.768,15.233,3.503
				C1372.531,898.638,1377.142,926.914,1404.418,923.043z"/>
		</g>
		<g>
			
				<linearGradient id="SVGID_00000086661666406192709070000007248498101423879828_" gradientUnits="userSpaceOnUse" x1="-107.8878" y1="3063.832" x2="-783.4957" y2="3798.7046" gradientTransform="matrix(-1 0 0 1 2487.3088 0)">
				<stop  offset="0" style="stop-color:#09005D"/>
				<stop  offset="1" style="stop-color:#1A0F91"/>
			</linearGradient>
			<path style="fill:url(#SVGID_00000086661666406192709070000007248498101423879828_);" d="M2808.757,3118.575
				c0,0,6.996,39.61,10.427,78.819c1.341,15.325-10.474,28.63-25.844,29.27c-52.215,2.175-163.905,6.404-203.985,4.615
				c-6.024-0.269-9.963-6.436-7.733-12.041l0,0c1.868-4.696,5.472-8.492,10.064-10.602l184.492-84.793L2808.757,3118.575z"/>
			
				<linearGradient id="SVGID_00000183231544500000693830000017547622976099367820_" gradientUnits="userSpaceOnUse" x1="-327.1797" y1="3118.4128" x2="-267.1684" y2="3118.4128" gradientTransform="matrix(-1 0 0 1 2487.3088 0)">
				<stop  offset="0" style="stop-color:#FEBBBA"/>
				<stop  offset="1" style="stop-color:#FF928E"/>
			</linearGradient>
			<path style="fill:url(#SVGID_00000183231544500000693830000017547622976099367820_);" d="M2814.489,3095.302l-5.621,47.379
				c0,0-32.319,15.045-54.391-1.896l13.385-52.798L2814.489,3095.302z"/>
			
				<linearGradient id="SVGID_00000150087142846108737390000010306407075777779886_" gradientUnits="userSpaceOnUse" x1="-469.4792" y1="2659.551" x2="-271.0541" y2="2659.551" gradientTransform="matrix(-1 0 0 1 2487.3088 0)">
				<stop  offset="0" style="stop-color:#09005D"/>
				<stop  offset="1" style="stop-color:#1A0F91"/>
			</linearGradient>
			<path style="fill:url(#SVGID_00000150087142846108737390000010306407075777779886_);" d="M2810.263,2204.571
				c2.428,12.372,13.035,617.424-51.642,888.568c-1.055,4.423,1.187,8.984,5.398,10.705c9.92,4.052,29.366,9.921,52.672,10.704
				c7.218,0.242,13.689-4.449,15.725-11.376c18.488-62.909,107.075-378.104,118.632-679.201c12.913-336.446,0-11.456,0-11.456
				l-7.573-207.97L2810.263,2204.571z"/>
			
				<linearGradient id="SVGID_00000093142648648537147310000000048002697250048927_" gradientUnits="userSpaceOnUse" x1="-259.448" y1="2924.4922" x2="-935.0588" y2="3659.3677" gradientTransform="matrix(-1 0 0 1 2487.3088 0)">
				<stop  offset="0" style="stop-color:#09005D"/>
				<stop  offset="1" style="stop-color:#1A0F91"/>
			</linearGradient>
			<path style="fill:url(#SVGID_00000093142648648537147310000000048002697250048927_);" d="M3020.985,3139.24
				c0,0,11.138,19.997,21.92,73.132c1.947,9.597-4.758,18.781-14.502,19.739c-17.241,1.695-43.784,3.875-65.045,3.729
				c-9.802-0.067-17.451-8.601-16.27-18.331c2.355-19.395,9.691-51.215,32.357-76.018L3020.985,3139.24z"/>
			
				<linearGradient id="SVGID_00000095310872446038765140000000143547575704916147_" gradientUnits="userSpaceOnUse" x1="-543.4576" y1="3115.335" x2="-491.6439" y2="3115.335" gradientTransform="matrix(-1 0 0 1 2487.3088 0)">
				<stop  offset="0" style="stop-color:#FEBBBA"/>
				<stop  offset="1" style="stop-color:#FF928E"/>
			</linearGradient>
			<path style="fill:url(#SVGID_00000095310872446038765140000000143547575704916147_);" d="M3030.767,3078.301l-13.135,71.649
				c0,0-12.987,9.66-38.679,2.657l6.27-77.091L3030.767,3078.301z"/>
			
				<linearGradient id="SVGID_00000157988259425825358060000001148498338320593075_" gradientUnits="userSpaceOnUse" x1="-599.3053" y1="2653.0583" x2="-317.6051" y2="2653.0583" gradientTransform="matrix(-1 0 0 1 2487.3088 0)">
				<stop  offset="0" style="stop-color:#09005D"/>
				<stop  offset="1" style="stop-color:#1A0F91"/>
			</linearGradient>
			<path style="fill:url(#SVGID_00000157988259425825358060000001148498338320593075_);" d="M3066.252,2223.138
				c52.895,319.23-11.475,789.003-33.184,880.949c-1.33,5.629-5.872,9.942-11.577,10.887c-9.691,1.607-25.645,2.917-41.373-1.651
				c-5.419-1.574-9.227-6.461-9.448-12.101c-2.913-74.335,2.329-530.684-46.957-711.035c-2.498-9.14-8.079-17.11-15.802-22.601
				l-95.661-68.008l-7.334-109.929L3066.252,2223.138z"/>
			<g>
				
					<linearGradient id="SVGID_00000051362909995138462950000001387102372190468269_" gradientUnits="userSpaceOnUse" x1="2586.1321" y1="2173.7903" x2="3049.8298" y2="1674.8113">
					<stop  offset="0" style="stop-color:#FF928E"/>
					<stop  offset="1" style="stop-color:#FE7062"/>
				</linearGradient>
				<path style="fill:url(#SVGID_00000051362909995138462950000001387102372190468269_);" d="M2729.197,1618.259
					c158.519-2.619,333.427,41.622,333.427,41.622c47.251,275.709,8.262,593.719,8.262,593.719
					c-122.721,32.183-261.158-19.676-261.158-19.676c-20.397-115.24-115.564-439.564-115.564-439.564
					c-77.452-9.612-141.255-31.958-193.798-61.501c40.078-46.458,58.972-105.572,67.179-140.516
					C2623.591,1609.763,2680.305,1619.067,2729.197,1618.259z"/>
				
					<linearGradient id="SVGID_00000127005430964210092840000001923167235786572433_" gradientUnits="userSpaceOnUse" x1="-29.9634" y1="1552.8074" x2="276.6209" y2="1552.8074" gradientTransform="matrix(-1 0 0 1 2487.3088 0)">
					<stop  offset="0" style="stop-color:#A22B25"/>
					<stop  offset="1" style="stop-color:#C0423C"/>
				</linearGradient>
				<path style="fill:url(#SVGID_00000127005430964210092840000001923167235786572433_);" d="M2260.96,1384.768
					c15.573-18.808,35.281-9.91,35.281-9.91c23.328,98.537,145.642,178.434,271.304,217.486
					c-8.207,34.944-27.101,94.058-67.179,140.516C2291.82,1615.603,2260.96,1384.768,2260.96,1384.768z"/>
			</g>
			<g>
				
					<linearGradient id="SVGID_00000062167719258087392250000002938360960737324957_" gradientUnits="userSpaceOnUse" x1="2328.9817" y1="482.9309" x2="2303.7805" y2="724.8606">
					<stop  offset="0" style="stop-color:#A22B25"/>
					<stop  offset="1" style="stop-color:#C0423C"/>
				</linearGradient>
				<path style="fill:url(#SVGID_00000062167719258087392250000002938360960737324957_);" d="M2264.741,1389.552
					c-1.63,5.18,17.239,13.067,28.348-8.119c0.389-10.153,6.563-53.652,0.496-61.923c-32.314-44.053-94.961-99.277-94.961-99.277
					c-10.587,10.447-1.865,20.711-1.865,20.711l30.391,31.66c-6.356,11.487-14.11,21.183-17.744,35.078
					c-2.753,10.523-1.069,21.768,4.246,31.344c5.335,9.612,12.613,22.104,19.493,31.881
					C2246.169,1389.412,2264.741,1389.552,2264.741,1389.552z"/>
				
					<linearGradient id="SVGID_00000109007242323178813550000017940633494825205377_" gradientUnits="userSpaceOnUse" x1="2265.5994" y1="587.0276" x2="2248.7974" y2="1816.903">
					<stop  offset="0" style="stop-color:#A22B25"/>
					<stop  offset="1" style="stop-color:#C0423C"/>
				</linearGradient>
				<path style="fill:url(#SVGID_00000109007242323178813550000017940633494825205377_);" d="M2240.444,1293.144l27.694,23.479
					l8.696,23.376l-24.692,27.393c0,0-8.303-46.38-14.473-56.419C2231.497,1300.934,2234.697,1296.08,2240.444,1293.144z"/>
			</g>
			
				<linearGradient id="SVGID_00000020359291372598806870000018431087366295464122_" gradientUnits="userSpaceOnUse" x1="2688.6973" y1="2269.104" x2="3152.3962" y2="1770.1238">
				<stop  offset="0" style="stop-color:#FF928E"/>
				<stop  offset="1" style="stop-color:#FE7062"/>
			</linearGradient>
			<path style="fill:url(#SVGID_00000020359291372598806870000018431087366295464122_);" d="M3001.822,1813.373l60.802-153.492
				c0,0,148.065,100.604,172.415,228.159c-27.977,2.061-78.885,9.337-128.714,34.498
				C3095.374,1862.309,3001.822,1813.373,3001.822,1813.373z"/>
			
				<linearGradient id="SVGID_00000010278326407391950110000011558619632372229792_" gradientUnits="userSpaceOnUse" x1="-674.2173" y1="1987.0753" x2="-286.2331" y2="1987.0753" gradientTransform="matrix(-1 0 0 1 2487.3088 0)">
				<stop  offset="0" style="stop-color:#A22B25"/>
				<stop  offset="1" style="stop-color:#C0423C"/>
			</linearGradient>
			<path style="fill:url(#SVGID_00000010278326407391950110000011558619632372229792_);" d="M2872.429,1957.805
				c0,0,166.241,93.951,222.332,13.728c11.647-16.658,14.431-33.213,11.563-48.996c49.829-25.161,100.737-32.437,128.714-34.498
				c7.342,38.453,3.461,79.35-19.135,120.686c-98.254,179.734-365.473-9.934-365.473-9.934L2872.429,1957.805z"/>
			
				<linearGradient id="SVGID_00000073704515219354036540000000439275184344826514_" gradientUnits="userSpaceOnUse" x1="2822.8586" y1="1441.0321" x2="2913.5872" y2="1783.7833">
				<stop  offset="0" style="stop-color:#A22B25"/>
				<stop  offset="1" style="stop-color:#C0423C"/>
			</linearGradient>
			<path style="fill:url(#SVGID_00000073704515219354036540000000439275184344826514_);" d="M2889.765,1489.566l50.438,145.864
				c0.836,2.415-0.159,5.092-2.396,6.329c-13.749,7.601-63.284,29.573-122.978-8.274c-6.218-3.942-10.451-10.372-11.396-17.675
				l-16.334-126.245H2889.765z"/>
			<g>
				
					<linearGradient id="SVGID_00000112600493187303980110000005621026177191070362_" gradientUnits="userSpaceOnUse" x1="-6082.3833" y1="-333.5716" x2="-6127.7476" y2="-190.7587" gradientTransform="matrix(-0.746 -0.6659 -0.6659 0.746 -2639.0266 -803.1727)">
					<stop  offset="0" style="stop-color:#A22B25"/>
					<stop  offset="1" style="stop-color:#C0423C"/>
				</linearGradient>
				<path style="fill:url(#SVGID_00000112600493187303980110000005621026177191070362_);" d="M2780.017,1354.492
					c0,0-55.386,104.258-48.286,146.374c7.1,42.115,75.742,39.091,135.683,4.886l41.886-112.576L2780.017,1354.492z"/>
				
					<linearGradient id="SVGID_00000073720360439035058260000002064020188517917375_" gradientUnits="userSpaceOnUse" x1="-5595.7515" y1="-2218.1104" x2="-5547.8018" y2="-1944.6189" gradientTransform="matrix(-0.746 -0.6659 -0.6659 0.746 -2639.0266 -803.1727)">
					<stop  offset="0" style="stop-color:#09005D"/>
					<stop  offset="1" style="stop-color:#1A0F91"/>
				</linearGradient>
				<path style="fill:url(#SVGID_00000073720360439035058260000002064020188517917375_);" d="M2864.765,1450.466
					c-2.437-1.078-3.335-4.059-1.875-6.288c4.437-6.778,12.755-20.608,15.408-32.716c0,0,9.957-6.377-25.342-14.826
					c-35.299-8.449-87.938-21.564-99.002-51.609c-10.788-29.293,33.145-76.242,62.775-44.265c1.917,2.068,5.091,2.283,6.808,0.048
					c7.414-9.648,26.903-29.675,53.961-17.534c25.32,11.361,28.173,29.916,27.825,39.268c-0.102,2.752,2.358,4.891,5.062,4.374
					c12.803-2.442,43.524-4.538,57.864,26.977c11.811,25.958,4.134,40.653-2.857,47.839c-2.266,2.328-1.272,6.162,1.833,7.113
					c8.415,2.575,19.279,9.71,18.191,29.422c-1.504,27.251-31.972,24.85-40.647,23.609c-1.421-0.203-2.853,0.284-3.815,1.349
					c-7.439,8.231-40.951,43.182-77.221,47.394c-3.14,0.365-5.574-2.737-4.547-5.726l15.697-45.628
					c0.729-2.119-0.285-4.444-2.334-5.351L2864.765,1450.466z"/>
				
					<linearGradient id="SVGID_00000062888277015784779020000015404422053567862182_" gradientUnits="userSpaceOnUse" x1="-6141.1313" y1="-352.2322" x2="-6186.4956" y2="-209.4191" gradientTransform="matrix(-0.746 -0.6659 -0.6659 0.746 -2639.0266 -803.1727)">
					<stop  offset="0" style="stop-color:#A22B25"/>
					<stop  offset="1" style="stop-color:#C0423C"/>
				</linearGradient>
				<path style="fill:url(#SVGID_00000062888277015784779020000015404422053567862182_);" d="M2858.456,1456.943
					c0,0,39.435-27.056,42.317-4.271c2.881,22.785-35.512,33.004-54.53,24.508L2858.456,1456.943z"/>
			</g>
			<g>
				
					<linearGradient id="SVGID_00000165193860561833083440000013951637877432356266_" gradientUnits="userSpaceOnUse" x1="3139.8354" y1="947.7254" x2="3050.7869" y2="1083.8182">
					<stop  offset="0" style="stop-color:#FF928E"/>
					<stop  offset="1" style="stop-color:#FE7062"/>
				</linearGradient>
				<path style="fill:url(#SVGID_00000165193860561833083440000013951637877432356266_);" d="M2758.051,1307.579
					c0,0,62.843-108.515,175.127-43.679c112.284,64.837,51.549,144.487,51.549,144.487L2758.051,1307.579z"/>
				
					<linearGradient id="SVGID_00000173856975525735602970000017190633704307731626_" gradientUnits="userSpaceOnUse" x1="580.0731" y1="887.0062" x2="816.6147" y2="1028.2069" gradientTransform="matrix(-0.9052 -0.425 -0.425 0.9052 3858.9097 712.5426)">
					<stop  offset="0" style="stop-color:#FF928E"/>
					<stop  offset="1" style="stop-color:#FE7062"/>
				</linearGradient>
				<path style="fill:url(#SVGID_00000173856975525735602970000017190633704307731626_);" d="M2988.261,1313.292
					c0,0-135.287-107.998-199.211,8.074c-26.132-11.501-31-13.786-31-13.786s56.769-103.962,134.197-68.953
					C2969.677,1273.631,2988.399,1290.433,2988.261,1313.292z"/>
				<path style="fill:#FFFFFF;" d="M2833.403,1344.495c0.385,0.181,0.842,0.179,1.251-0.026l0.873-0.479
					c20.142-10.772,53.85-28.804,76.224-19.55c10.793,4.455,21.287,11.184,31.44,17.669c7.166,4.578,14.579,9.321,22.005,13.216
					c10.115,5.313,21.254,11.001,34.042,17.378l0.03,0.013c0.68,0.319,1.496,0.041,1.839-0.639c0.348-0.69,0.065-1.52-0.625-1.868
					c-12.777-6.371-23.889-12.045-33.982-17.35c-7.332-3.839-14.691-8.543-21.798-13.094c-10.271-6.566-20.961-13.339-31.883-17.902
					c-23.589-9.765-58.027,8.67-78.601,19.672l-0.88,0.465c-0.677,0.367-0.929,1.21-0.576,1.893
					C2832.908,1344.166,2833.137,1344.371,2833.403,1344.495z"/>
				
					<linearGradient id="SVGID_00000083056270493229958620000017009508391613708710_" gradientUnits="userSpaceOnUse" x1="2990.0652" y1="947.3218" x2="2924.5396" y2="1145.5784">
					<stop  offset="0" style="stop-color:#E1473D"/>
					<stop  offset="1" style="stop-color:#E9605A"/>
				</linearGradient>
				<path style="fill:url(#SVGID_00000083056270493229958620000017009508391613708710_);" d="M2984.362,1425.946l-266.797-102.622
					c-1.681-0.646-2.77-2.282-2.721-4.082c0.049-1.8,1.227-3.375,2.94-3.927c13.764-4.435,36.538-10.639,45.654-6.56
					c29.249,13.091,221.287,99.633,221.287,99.633S2989.508,1410.633,2984.362,1425.946z"/>
			</g>
			<g>
				<path style="fill:#BDD0FB;" d="M2389.258,1628.797c0.043-0.121,0.089-0.281,0.132-0.401l0.455-0.311l2.313-1.712l32.803-23.887
					c4.644-3.38,10.614-4.367,16.099-2.657c5.484,1.71,9.836,5.915,11.736,11.337l16.396,46.806l31.312,89.351
					C2500.504,1747.323,2355.476,1748.094,2389.258,1628.797z"/>
				<path style="fill:#FFFFFF;" d="M2389.215,1628.795c0.209-0.277,0.399-0.515,0.609-0.71l2.324-1.712
					c-11.65,17.129,8.314,20.371,77.04,31.6c10.904,1.768,23.059,3.734,36.495,6.02c74.033,12.456,142.161-23.055,173.335-42.963
					c4.522-2.889,10.09-3.629,15.211-2.024c5.12,1.605,9.266,5.394,11.335,10.345c26.552,63.513,105.057,251.107,108.948,258.166
					l76.746,179.753c0,0,0.971,29.581-42.288,57.889c-43.302,28.308-56.547,39.045-118,28.025
					c-31.573-5.636-71.204-17.891-102.272-28.404c0,0,0,0-0.038-0.041c-0.042-0.001-0.132,4.556-0.172,4.554
					c-26.986-9.141-47.437-13.665-50.505-13.665h-0.042c-0.243,0-1.624-4.759-1.624-4.759l-87.992-208.397v-0.039l-1.64-6.81
					c-35.474-52.803-59.119-95.53-75.388-130.116c-0.229-0.494-0.138-0.976-0.405-1.51c-3.773-8.032-6.952-15.644-9.899-22.803
					C2370.844,1667.562,2382.063,1638.533,2389.215,1628.795z"/>
				
					<linearGradient id="SVGID_00000139270365882278352730000015378690662370396800_" gradientUnits="userSpaceOnUse" x1="2404.5747" y1="1939.0151" x2="2628.4875" y2="1939.0151">
					<stop  offset="0" style="stop-color:#DAE3FE"/>
					<stop  offset="1" style="stop-color:#E9EFFD"/>
				</linearGradient>
				<path style="fill:url(#SVGID_00000139270365882278352730000015378690662370396800_);" d="M2628.488,2129.294
					c-26.986-9.142-47.436-13.666-50.505-13.666h-0.042l-87.46-207.209c-0.31-0.454-2.156-5.502-2.156-5.946v-0.039
					c-43.684-56.417-61.551-101.266-77.666-136.939c-0.229-0.492,0.181-0.97-0.087-1.504c-2.242-5.036-4.005-9.9-5.931-14.605
					l-0.066-0.65c2.028,2.645,67.235,90.62,90.038,120.138C2515.153,1895.497,2607.987,2087.188,2628.488,2129.294z"/>
			</g>
			<g>
				
					<linearGradient id="SVGID_00000036934635031082336120000012091429233694144405_" gradientUnits="userSpaceOnUse" x1="-353.483" y1="1946.3953" x2="-232.6099" y2="1946.3953" gradientTransform="matrix(-1 0 0 1 2487.3088 0)">
					<stop  offset="0" style="stop-color:#A22B25"/>
					<stop  offset="1" style="stop-color:#C0423C"/>
				</linearGradient>
				<path style="fill:url(#SVGID_00000036934635031082336120000012091429233694144405_);" d="M2870.484,2000.114
					c0,0,12.638-51.968,7.54-70.406c-5.098-18.438-14.976-42.144-47.899-36.876c-32.925,5.268-71.762,19.137-71.762,19.137
					s1.962,24.016,26.985,16.268l-15.518,12.006c0,0,2.218,19.229,23.355,8.956l-14.433,15.922c0,0,9.077,15.794,24.627,5.664
					C2818.93,1960.656,2826.384,2006.371,2870.484,2000.114z"/>
			</g>
		</g>
	</g>
</g>
</svg>
