<?xml version="1.0" encoding="utf-8"?>
<!-- Generator: Adobe Illustrator 27.5.0, SVG Export Plug-In . SVG Version: 6.00 Build 0)  -->
<svg version="1.1" id="_x2018_лой_x5F_1" xmlns="http://www.w3.org/2000/svg" xmlns:xlink="http://www.w3.org/1999/xlink"
	 x="0px" y="0px" viewBox="0 0 3200 2000" style="enable-background:new 0 0 3200 2000;" xml:space="preserve">
<rect style="fill:#FFFFFF;" width="3200" height="2000"/>
<g>
	<path style="fill:#DCEAFF;" d="M2880.467,1759.062l-982.727-0.31l-1516.291-0.453c0,0-176.841-297.302-15.454-699.009
		c105.212-261.84,317.919-455.041,683.075-336.901c75.216,24.335,192.87,8.793,344.142-91.71
		c7.685-5.11,15.329-10.436,22.911-15.978c4.141-3.039,8.272-6.129,12.372-9.303c51.52-39.734,99.7-89.976,139.403-151.807
		c22.767-35.448,49.645-66.796,79.798-94.158c18.801-17.049,38.889-32.553,60.069-46.543c13.516-8.932,27.475-17.235,41.836-24.931
		c38.188-20.48,79.189-36.643,122.075-48.634c4.173-1.165,8.354-2.287,12.558-3.379c9.776-2.534,19.636-4.842,29.577-6.943
		c6.819-1.452,13.67-2.792,20.562-4.038c8.428-1.525,16.927-2.916,25.456-4.131h0.011c23.261-3.358,46.852-5.625,70.67-6.83
		c4.512-0.227,9.034-0.412,13.567-0.567c2.885-0.093,5.769-0.175,8.653-0.237c8.859-0.196,17.739-0.247,26.63-0.154
		c221.839,2.256,453.938,94.385,595.277,260.232c71.154,83.506,119.315,185.689,131.543,304.5
		c4.513,43.865,4.142,90.006-1.782,138.311c-0.175,1.473-0.35,2.926-0.546,4.368c-0.299,2.338-0.618,4.698-0.958,7.046
		c-1.215,8.859-2.637,17.801-4.265,26.815c-3.575,19.996-6.006,40.98-13.608,61.049
		C2627.848,1430.806,3080.496,1393.926,2880.467,1759.062z"/>
	<g>
		<path style="fill:#EBF3FA;" d="M1469.388,1705.389h-42.215c-10.694,0-19.364-8.669-19.364-19.363v-428.104
			c0-10.693,8.669-19.363,19.364-19.363h42.215c10.694,0,19.363,8.67,19.363,19.363v428.104
			C1488.751,1696.72,1480.082,1705.389,1469.388,1705.389z"/>
		<path style="fill:#EBF3FA;" d="M1579.705,1705.389h-42.215c-10.694,0-19.364-8.669-19.364-19.363v-428.104
			c0-10.693,8.669-19.363,19.364-19.363h42.215c10.694,0,19.363,8.67,19.363,19.363v428.104
			C1599.068,1696.72,1590.399,1705.389,1579.705,1705.389z"/>
		<path style="fill:#EBF3FA;" d="M1690.022,1705.389h-42.216c-10.693,0-19.363-8.669-19.363-19.363v-428.104
			c0-10.693,8.67-19.363,19.363-19.363h42.216c10.694,0,19.363,8.67,19.363,19.363v428.104
			C1709.386,1696.72,1700.717,1705.389,1690.022,1705.389z"/>
		<path style="fill:#EBF3FA;" d="M1800.34,1705.389h-42.215c-10.694,0-19.364-8.669-19.364-19.363v-428.104
			c0-10.693,8.67-19.363,19.364-19.363h42.215c10.693,0,19.363,8.67,19.363,19.363v428.104
			C1819.703,1696.72,1811.033,1705.389,1800.34,1705.389z"/>
		<path style="fill:#EBF3FA;" d="M1910.656,1705.389h-42.215c-10.693,0-19.363-8.669-19.363-19.363v-428.104
			c0-10.693,8.67-19.363,19.363-19.363h42.215c10.695,0,19.364,8.67,19.364,19.363v428.104
			C1930.021,1696.72,1921.352,1705.389,1910.656,1705.389z"/>
		<path style="fill:#EBF3FA;" d="M2020.975,1705.389h-42.216c-10.694,0-19.363-8.669-19.363-19.363v-428.104
			c0-10.693,8.669-19.363,19.363-19.363h42.216c10.693,0,19.363,8.67,19.363,19.363v428.104
			C2040.338,1696.72,2031.668,1705.389,2020.975,1705.389z"/>
	</g>
	<g>
		<g>
			<path style="fill:#EBF3FA;" d="M2052.73,213.199v933.34h-636.607V614.7c4.141-3.039,8.272-6.129,12.372-9.303
				c51.52-39.734,99.7-89.976,139.403-151.807c22.767-35.448,49.645-66.796,79.798-94.158
				c18.801-17.049,38.889-32.553,60.069-46.543c13.516-8.932,27.475-17.235,41.836-24.931
				c38.188-20.48,79.189-36.643,122.075-48.634c4.173-1.165,8.354-2.287,12.558-3.379c9.776-2.534,19.636-4.842,29.577-6.943
				c6.819-1.452,13.67-2.792,20.562-4.038c8.428-1.525,16.927-2.916,25.456-4.131h0.011c23.261-3.358,46.852-5.625,70.67-6.83
				c4.512-0.227,9.034-0.412,13.567-0.567C2046.962,213.343,2049.846,213.261,2052.73,213.199z"/>
			<g>
				<path style="fill:#C2D2FF;" d="M2052.73,213.199c-2.885,0.062-5.769,0.144-8.653,0.237v918.156h-615.582V605.398
					c-4.1,3.173-8.231,6.264-12.372,9.303c-7.583,5.542-15.227,10.868-22.911,15.978v538.638h686.148V213.045
					C2070.47,212.952,2061.59,213.003,2052.73,213.199z"/>
			</g>
			<path style="fill:#C2D2FF;" d="M2117.607,1171.229h-760.281v-15.229c0-10.904,8.84-19.745,19.745-19.745h721.263
				c10.645,0,19.273,8.63,19.273,19.274V1171.229z"/>
			<path style="fill:#C2D2FF;" d="M1749.602,287.959v855.324h-41.836V312.89C1721.281,303.958,1735.24,295.655,1749.602,287.959z"/>
			<path style="fill:#9DB0F4;" d="M1735.534,711.945h-3.363c-2.262,0-4.115-1.823-4.186-4.117l-1.48-48.076
				c-0.074-2.398,1.821-4.382,4.186-4.382h6.447c2.368,0,4.266,1.991,4.186,4.393l-1.604,48.076
				C1739.643,710.129,1737.792,711.945,1735.534,711.945z"/>
		</g>
		<g>
			<polygon style="fill:#D2E4FF;" points="1989.232,693.144 2044.264,700.648 1987.158,1131.865 1932.128,1124.361 			"/>
			<polygon style="fill:#F99746;" points="1988.169,1124.242 1987.158,1131.87 1932.127,1124.366 1933.137,1116.738 			"/>
			<polygon style="fill:#F99746;" points="2044.77,696.834 2043.759,704.462 1988.728,696.958 1989.738,689.331 			"/>
			<path style="fill:#F99746;" d="M1963.204,1101.225c-5.465-0.745-9.3-5.846-8.565-11.391c0.734-5.546,5.76-9.438,11.226-8.692
				c5.465,0.745,9.3,5.845,8.565,11.391S1968.67,1101.97,1963.204,1101.225z"/>
			<path style="fill:#F99746;" d="M2010.041,747.543c-5.465-0.745-9.3-5.845-8.565-11.391s5.76-9.438,11.226-8.692
				c5.465,0.745,9.301,5.845,8.566,11.391C2020.532,744.396,2015.507,748.288,2010.041,747.543z"/>
			<path style="fill:#F99746;" d="M1964.226,881.982c12.117,4.078,20.05,16.441,18.287,29.753
				c-1.762,13.301-12.63,23.102-25.378,23.788L1964.226,881.982z"/>
		</g>
		<g>
			<path style="fill:#ED7D2B;" d="M1789.315,1131.834h-154.149c-7.066,0-12.795-5.729-12.795-12.796v-0.188
				c0-7.067,5.729-12.796,12.795-12.796h154.149c7.067,0,12.796,5.729,12.796,12.796v0.188
				C1802.111,1126.104,1796.383,1131.834,1789.315,1131.834z"/>
			<path style="fill:#ED7D2B;" d="M1500.084,1131.811h171.846c9.535,0,17.336-7.802,17.336-17.337V983.245
				c0-9.535-7.801-17.336-17.336-17.336h-171.846c-9.535,0-17.336,7.801-17.336,17.336v131.229
				C1482.748,1124.009,1490.549,1131.811,1500.084,1131.811z"/>
			<path style="fill:#F99746;" d="M1644.089,966.637c0,0-42.783-27.25-83.727-27.551c-26.667-0.196-57.054,26.393-58.881,26.68
				c-4.634,0.728,15.447,0.97,15.447,0.97s30.095-17.771,43.616-18.191c16.308-0.506,57.791,19.646,57.791,19.646L1644.089,966.637z
				"/>
			<path style="fill:#F99746;" d="M1480.006,1131.811h171.846c9.535,0,17.337-7.802,17.337-17.337V983.245
				c0-9.535-7.802-17.336-17.337-17.336h-171.846c-9.535,0-17.336,7.801-17.336,17.336v131.229
				C1462.669,1124.009,1470.471,1131.811,1480.006,1131.811z"/>
		</g>
	</g>
	<g>
		<path style="fill:#EBF3FA;" d="M2194.041,1406.493h-230.082v-14.422h230.082c24.246,0,43.973-19.727,43.973-43.973V231.55h14.422
			v1116.548C2252.436,1380.298,2226.24,1406.493,2194.041,1406.493z"/>
	</g>
	<g>
		<rect x="2119.213" y="1397.954" style="fill:#EBF3FA;" width="14.422" height="350.757"/>
	</g>
	<g>
		<g>
			<polygon style="fill:#9DB0F4;" points="2084.644,1748.711 1838.081,1748.711 1828.871,1543.875 2093.008,1543.875 			"/>
			<path style="fill:#C2D2FF;" d="M2094.14,1551.813h-270.333c-2.169,0-3.927-1.758-3.927-3.927v-1.224
				c0-2.168,1.758-3.927,3.927-3.927h270.333c2.169,0,3.927,1.759,3.927,3.927v1.224
				C2098.066,1550.056,2096.309,1551.813,2094.14,1551.813z"/>
			<rect x="1856.409" y="1612.664" style="fill:#C2D2FF;" width="208.499" height="56.199"/>
		</g>
		<g>
			<polygon style="fill:#FF9E55;" points="2233.149,1748.711 2021.109,1748.711 2013.188,1489.413 2240.343,1489.413 			"/>
			<rect x="2005.456" y="1482.585" style="fill:#E58638;" width="239.236" height="19.92"/>
			<rect x="2036.871" y="1576.492" style="fill:#FFE4CC;" width="179.307" height="71.142"/>
		</g>
		<g>
			<path style="fill:#F99746;" d="M1177.884,1730.113l215.307-39.146v60.78h-216.337
				C1176.854,1751.747,1178.915,1729.083,1177.884,1730.113z"/>
			<rect x="1393.191" y="1690.967" style="fill:#E58638;" width="146.285" height="60.78"/>
		</g>
	</g>
	<g>
		<g>
			<g>
				<path style="fill:#2A4E96;" d="M2281.493,893.914l-20.224-51.035c-1.871-4.721,0.462-10.115,5.184-11.986l0.25-0.099
					c4.721-1.871,10.115,0.461,11.986,5.183l20.223,51.035c1.871,4.722-0.461,10.115-5.183,11.986l-0.25,0.099
					C2288.758,900.967,2283.364,898.635,2281.493,893.914z"/>
				<path style="fill:#2A4E96;" d="M2225.453,819l62.975-24.955c5.191-2.057,11.121,0.507,13.178,5.698l5.75,14.509
					c2.057,5.191-0.508,11.121-5.698,13.178l-62.976,24.955c-5.191,2.057-11.121-0.507-13.178-5.698l-5.749-14.509
					C2217.698,826.986,2220.262,821.057,2225.453,819z"/>
				
					<rect x="2211.246" y="779.801" transform="matrix(-0.9297 0.3684 -0.3684 -0.9297 4647.4824 717.3395)" style="fill:#AFCDFB;" width="88.043" height="44.996"/>
				<path style="fill:#FFFFFF;" d="M2210.506,807.955c0,0,8.811,2.832,19.09-4.3c10.278-7.132,5.453-12.796,17.83-10.909
					c12.377,1.888,23.076-3.566,24.964-8.601c1.888-5.035,21.606-3.986,21.606-3.986l-6.092-14.994l-81.851,32.435L2210.506,807.955
					z"/>
			</g>
			<path style="fill:#98C6F4;" d="M2292.529,889.76c0.492,1.243-0.116,2.65-1.359,3.142c-1.243,0.493-2.65-0.116-3.143-1.359
				c-0.492-1.243,0.115-2.65,1.359-3.142C2290.629,887.909,2292.036,888.517,2292.529,889.76z"/>
		</g>
		<path style="fill:#FFB27D;" d="M2258.18,651.746c0,0-13.673-28.399-24.77-37.215c-11.096-8.815-40.715-6.666-41.852-4.41
			c-3.521,6.983,23.77,17.863,26.917,24.273c3.147,6.41-9.93,5.765,0.112,16.904c8.482,9.408,28.782,18.377,28.782,18.377
			L2258.18,651.746z"/>
		<path style="fill:#E58638;" d="M2246.363,648.504c7.189-11.188,9.34-11.768,9.34-11.768s118.907,47.428,130.256,51.388
			c11.348,3.96,180.997,13.933,180.997,13.933l51.199,112.533c0,0-226.079-51.56-254.636-62.158
			c-47.189-17.513-122.885-86.107-122.885-86.107S2240.717,657.292,2246.363,648.504z"/>
		<path style="fill:#163560;" d="M2541.764,1700.696c0,0-2.59,41.74-10.342,51.556h-119.271c0.754-4.162,4.13-14.438,19.043-17.043
			c18.846-3.277,50.393-16.519,61.798-41.429C2505.005,1667.576,2541.764,1700.696,2541.764,1700.696z"/>
		<path style="fill:#163560;" d="M2753.421,1694.876c0,0,7.433,54.217-2.776,55.154c-1.358,0.125-45.361,0.101-62.584,0
			c-21.446-0.125-55.701,0.134-55.701,0.134c-4.431,0.184-7.334-4.615-5.077-8.433c2.476-4.188,7.198-8.663,16.203-10.396
			c18.782-3.615,50.085-17.412,61.06-42.514C2716.09,1662.414,2753.421,1694.876,2753.421,1694.876z"/>
		<path style="fill:#233862;" d="M2485.682,1145.205c0,0,29.99,104.941,115.943,287.176s92.586,265.282,92.586,265.282l59.21-2.787
			c0,0-5.567-216.908-46.168-308.872c-40.601-91.963-48.873-343.617-48.873-343.617L2485.682,1145.205z"/>
		<path style="fill:#2A4E96;" d="M2437.533,1054.912c0,0-2.387,162.496,25.728,362.014
			c28.114,199.517,18.585,284.208,18.585,284.208l67.337,2.239c0,0,40.241-199.591,28.704-299.454
			c-11.538-99.863,55.104-342.674,55.104-342.674L2437.533,1054.912z"/>
		<path style="fill:#FFB27D;" d="M2570.402,674.649l-31.76,23.523l-45.9-9.663c0.636-4.186,3.666-21.534,6.425-37.247
			c0.167-0.927,0.334-1.854,0.489-2.759c2.364-13.371,4.405-24.856,4.405-24.856l42.87-21.367l15.983-7.966
			c-0.042,0.281-1.239,14.838-1.405,16.963C2558.51,649.013,2570.402,674.649,2570.402,674.649z"/>
		<path style="fill:#E58638;" d="M2495.955,662.78c1.006-0.424,62.438-18.552,69.111-16.349
			c6.674,2.204,10.625,15.116,10.625,15.116l-94.844,27.016C2480.848,688.564,2483.118,668.185,2495.955,662.78z"/>
		<path style="fill:#F99746;" d="M2661.374,1074.972c-10.396,47.499-227.495-101.548-224.604-130.535
			c0.318-3.183,0.637-6.392,0.955-9.574c4.005-40.364,7.85-79.854,8.115-105.632c0.212-22.358,3.288-45.218,7.399-65.984
			c3.766-19.174,8.407-36.572,12.438-50.125c2.838-9.547,8.142-17.954,15.17-24.558c4.985-4.694,10.847-8.461,17.317-11.033
			c1.751-0.743,3.554-1.353,5.384-1.883c26.15-7.585,62.324-16.973,72.137-14.109c26.573,7.824,46.305,54.58,60.281,114.199
			C2662.117,887.337,2668.164,1044.022,2661.374,1074.972z"/>
		<path style="fill:#FCA56B;" d="M2558.292,611.942c-9.413,18.015-44.494,33.592-59.125,39.319c0.167-0.927,0.334-1.854,0.489-2.759
			c2.364-13.371,4.405-24.856,4.405-24.856l42.87-21.367C2556.407,602.134,2562.176,604.529,2558.292,611.942z"/>
		<path style="fill:#FFB27D;" d="M2483.229,621.137c0,0,77.342,24.126,91.625-24.27c14.284-48.396,33.886-77.876-14.891-95.326
			c-48.777-17.451-63.866-1.828-72.563,13.166C2478.704,529.702,2463.479,613.614,2483.229,621.137z"/>
		<path style="fill:#163560;" d="M2490.438,510.045c0,0,4.933,56.317,16.578,53.872c11.646-2.445,22.21-4.257,20.505,12.719
			c-1.705,16.976-17.856,36.58,18.037,39.582c35.894,3.003,87.492-89.563,77.633-107.09
			C2594.74,458.56,2449.317,448.354,2490.438,510.045z"/>
		<path style="fill:#E58638;" d="M2443.32,1054.912c21.502,7.771-0.371-21.365,0-27.439c1.67-26.706-8.805-60.467-5.596-92.61
			l131.313-78.491C2569.037,856.371,2600.19,1053.666,2443.32,1054.912z"/>
		<path style="fill:#2A4E96;" d="M2661.374,1074.972c-56.056,103.891-64.983,143.563-64.983,143.563
			c-48.788-5.561-132.39-101.477-158.907-127.08c0,0-3.604-118.031-0.714-147.019l40.523-1.167c0,0,73.25,18.565,92.24-6.63
			c18.988-25.195,10.768-148.861,10.768-148.861l55.666-12.041C2662.117,887.337,2676.42,1047.086,2661.374,1074.972z"/>
		<path style="fill:#FFB27D;" d="M2328.759,875.887c0,0-26.684-18.051-31.745-19.624c-5.062-1.573-8.025-9.406-8.891-10.653
			c-3.042-4.379-4.519,3.441-3.16,6.339c1.573,3.357,3.859,8.162-3.553,7.086c-1.424-0.206-13.531-0.496-16.047,5.067
			c-2.517,5.562-4.73,24.619,8.068,30.398s44.392,0.557,46.67,1.219C2339.422,901.334,2328.759,875.887,2328.759,875.887z"/>
		<path style="fill:#F99746;" d="M2328.512,871.007c0,0,130.234,22.141,141.775,16.522c18.419-8.968-7.148-141.104-7.148-141.104
			s-1.098-29.946,33.882-37.009c30.397-6.138,59.724,16.632,59.724,16.632s26.674,23.866,23.266,50.338
			c-7.554,58.677-19.304,178.021-58.551,196.314c-50.62,23.595-197.098-65.43-197.098-65.43s-4.878-5.972-4.185-17.064
			C2320.788,880.422,2328.512,871.007,2328.512,871.007z"/>
		<path style="fill:#2A4E96;" d="M2591.094,785.444l-10.793,2.334c0,0-22.809-98.737-99.453-99.214
			c4.985-4.694,10.847-8.461,17.317-11.033C2526.251,685.063,2575.022,709.065,2591.094,785.444z"/>
		<g>
			<g>
				<path style="fill:#2A4E96;" d="M2248.052,623.227l-45.2,26.859c-4.182,2.485-9.552,1.238-11.935-2.772l-0.126-0.213
					c-2.383-4.009-0.91-9.323,3.271-11.807l45.199-26.859c4.182-2.485,9.553-1.237,11.935,2.772l0.126,0.212
					C2253.705,615.429,2252.233,620.743,2248.052,623.227z"/>
				<path style="fill:#2A4E96;" d="M2199.859,711.412l-61.091-102.809c-3.82-6.429-1.687-14.814,4.743-18.635l6.188-3.678
					c6.43-3.82,14.815-1.686,18.636,4.743l61.092,102.809c3.82,6.429,1.686,14.814-4.744,18.635l-6.188,3.678
					C2212.066,719.976,2203.681,717.841,2199.859,711.412z"/>
				<polygon style="fill:#AFCDFB;" points="2221.594,714.31 2184.539,736.337 2109.562,610.144 2117.188,605.613 2146.604,588.13 
									"/>
				<path style="fill:#FFFFFF;" d="M2195.087,729.604l-10.548,6.734l-74.978-126.193l7.627-4.531
					c4.405,3.172,24.065,18.238,25.563,34.625c1.674,18.464,24.33,30.837,24.959,40.592c0.629,9.754,0,23.914,11.957,28.005
					C2191.625,712.926,2195.087,729.604,2195.087,729.604z"/>
			</g>
			<path style="fill:#98C6F4;" d="M2242.641,613.738c1.101-0.654,2.523-0.292,3.178,0.809c0.654,1.1,0.292,2.523-0.809,3.178
				c-1.102,0.654-2.524,0.292-3.179-0.809C2241.178,615.815,2241.539,614.393,2242.641,613.738z"/>
		</g>
		<path style="fill:#FFB27D;" d="M2228.569,643.495c-0.142-0.128-6.019-7.214-11.813-14.08c-4.262-5.051-6.904-11.597-8.764-13.552
			c-4.388-4.612-8.119,5.786-1.624,18.921c5.499,11.119,15.726,20.202,19.294,22.641
			C2229.229,659.863,2228.569,643.495,2228.569,643.495z"/>
	</g>
	<g>
		<g>
			<g>
				<path style="fill:#C2D2FF;" d="M1223.096,1302.842c-1.791-0.783-2.606-2.869-1.824-4.659l15.715-35.925
					c1.242-2.84-0.058-6.16-2.897-7.402l-79.072-34.589c-6.414-2.806-9.349-10.306-6.543-16.72l11.835-27.056
					c2.806-6.413,10.306-9.349,16.72-6.543l32.822,14.357c1.79,0.783,2.606,2.869,1.823,4.659s-2.869,2.606-4.659,1.823
					l-32.822-14.357c-2.839-1.241-6.159,0.058-7.401,2.896l-11.835,27.056c-1.242,2.839,0.057,6.159,2.896,7.401l79.072,34.589
					c6.414,2.806,9.35,10.307,6.543,16.721l-15.715,35.925C1226.972,1302.809,1224.886,1303.625,1223.096,1302.842z"/>
			</g>
			<path style="fill:#F99746;" d="M1221.117,1316.428l-8.045-3.52c-3.009-1.315-4.394-4.854-3.077-7.862l17.88-40.875
				c1.316-3.009,4.854-4.394,7.863-3.077l8.045,3.519c3.009,1.316,4.394,4.854,3.077,7.863l-17.88,40.875
				C1227.664,1316.359,1224.126,1317.744,1221.117,1316.428z"/>
			<path style="fill:#C2D2FF;" d="M1345.943,1232.558l-11.121,25.422c-2.896,6.621-10.614,9.634-17.235,6.737l-131.582-57.56
				c-6.613-2.892-9.639-10.604-6.742-17.226l11.12-25.422c2.897-6.622,10.614-9.635,17.226-6.742l131.583,57.56
				C1345.813,1218.224,1348.839,1225.936,1345.943,1232.558z"/>
			<path style="fill:#EBF3FA;" d="M1345.943,1232.558l-3.829,8.751c-2.896,6.622-10.613,9.635-17.235,6.738l-131.582-57.56
				c-6.612-2.893-9.639-10.604-6.742-17.226l3.828-8.752c2.897-6.622,10.614-9.635,17.226-6.742l131.583,57.56
				C1345.813,1218.224,1348.839,1225.936,1345.943,1232.558z"/>
		</g>
		<path style="fill:#FFB27D;" d="M986.379,1335.527c0,0,28.611,4.146,35.246,11.61c6.635,7.464,10.781,13.269,6.635,16.586
			s-67.175-12.854-67.175-12.854L986.379,1335.527z"/>
		<path style="fill:#E58638;" d="M917.545,1234.35l77.127,98.689c0,0-6.635,13.27-28.197,15.757
			c-21.563,2.488-67.175-11.61-67.175-15.757S917.545,1234.35,917.545,1234.35z"/>
		<path style="fill:#2B478B;" d="M1161.673,1448.129c-22.429,25.848-69.738,42.559-161.009,46.792
			c-7.327,0.346-14.704,0.63-22.106,0.853c-7.626,0.234-15.264,0.396-22.902,0.498c-24.805,0.345-49.486,0.061-73.01-0.731
			c-22.802-0.781-44.522-2.03-64.202-3.665c-38.489-3.197-69.215-7.857-85.089-13.198c-4.752-1.594-8.173-3.248-10.076-4.954
			c-1.63-1.452-2.948-3.157-3.943-5.097c-5.76-10.68-2.749-28.173,4.205-47.462c10.139-28.072,28.749-59.9,41.275-79.819
			c2.513-3.979,4.753-7.462,6.655-10.365c3.819-5.848,6.195-9.27,6.195-9.27s42.631,3.96,101,11.523
			c11.905,1.533,24.481,3.238,37.469,5.076c125.494,17.746,250.539,49.646,250.415,91.971
			C1166.537,1436.728,1166.96,1442.037,1161.673,1448.129z"/>
		<path style="fill:#2C3A64;" d="M1006.282,1494.41c-7.625,0.233-42.988,1.76-50.626,1.861c-24.805,0.345-49.486,0.061-73.01-0.731
			l-22.118-89.118C894.738,1454.139,995.286,1491.334,1006.282,1494.41z"/>
		<path style="fill:#2C3A64;" d="M932.362,1753.259h121.656c-1.916-4.635-6.552-10.672-17.844-12.647
			c-19.161-3.36-52.426-13.726-48.163-41.384c4.321-28.033-42.343-31.65-42.343-31.65S926.255,1742.587,932.362,1753.259z"/>
		<path style="fill:#2B478B;" d="M1163.647,1443.547c0,0-150.92,237.426-163.471,265.643c0,0-51.349,4.779-63.703-31.904
			c0,0,89.712-250.561,129.141-271.21C1105.042,1385.426,1163.647,1443.547,1163.647,1443.547z"/>
		<g>
			<path style="fill:#FFB27D;" d="M859.301,943.681c0,0,51.969,71.125,98.292,74.931c0,0-5.919-26.773-19.589-43.652
				c3.673-5.932,6.866-11.354,9.609-16.188c9.101-16.123,13.131-25.761,13.131-25.761l-21.307-38.551l-4.398-20.724
				c-3.604,9.732-7.82,18.708-12.527,26.111C898.238,937.961,859.301,943.681,859.301,943.681z"/>
			<path style="fill:#ED975D;" d="M920.484,899.47c0,0-7.54,35.633,27.129,59.302c9.101-16.123,13.131-25.761,13.131-25.761
				l-21.307-38.551C922.41,891.94,920.484,899.47,920.484,899.47z"/>
			<path style="fill:#FFB27D;" d="M967.227,954.5c0,0-65.189-35.514-42.448-75.771c22.741-40.256,29.643-71.952,72.227-50.979
				s41.923,40.863,37.6,56.146C1030.283,899.179,984.771,962.7,967.227,954.5z"/>
			<path style="fill:#2B478B;" d="M925.012,798.581c-0.36-1.011-1.626-2.204-4.9-3.681c0,0,3.329-0.665,6.94,0.626
				c2.524-4.455,8.229-11.86,17.021-10.8c0,0-5.202,0.668-7.705,5.473c13.009-6.09,35.598-5.455,88.916,20.21
				c70.267,33.824,28.155,71.743,16.596,73.737c-11.559,1.995-29.236-22.543-47.271-27.89
				c-18.035-5.347-31.277,19.036-38.571,20.266c-7.294,1.23-2.555-4.096-9.16-10.883c-6.604-6.787-12.586,6.429-13.661,16.109
				c-1.075,9.68-16.581,17.005-16.581,17.005s0,0-6.437-16.498c-6.438-16.498,3.005-72.198,12.326-81.248
				C923.349,800.208,924.172,799.394,925.012,798.581z"/>
		</g>
		<path style="fill:#233862;" d="M535.785,1675.639c0,0-15.164,23.012-18.69,30.469c-3.527,7.456,3.392,23.326,13.792,25.715
			c9.169,2.105,10.541,18.367,10.541,18.367h-44.456c-4.705,0-8.95-2.592-10.763-6.583c-6.269-13.802-7.704-31.739-8.965-37.742
			c-2.651-12.619-7.904-23.206-5.583-36.061c2.313-12.807,24.208-20.218,64.124-20.097
			C579.633,1649.841,535.785,1675.639,535.785,1675.639z"/>
		<path style="fill:#F99746;" d="M666.481,1398.145c33.524,35.524,279.688-37.967,259.056-56.691
			c-5.248-4.757-3.454-10.471-5.587-18.134c-10.212-36.337,10.118-98.515,18.838-122.62c2.039-5.587,3.435-9.117,3.7-9.834
			c8.325-22.5,14.761-45.926,18.971-68.558c8.117-43.435,7.966-83.829-3.133-108.576c-0.076-0.132-0.095-0.245-0.17-0.34
			c-46.115-13.477-71.503-81.318-71.503-81.318s-146.083,41.49-199.105,249.94c0,0-2.737,13.288-6.116,33.24h-0.019
			c-1.02,6.116-2.114,12.874-3.209,20.065c-5.663,37.092-8.947,84.66-12.307,120.071c-0.132,1.228-0.246,2.473-0.377,3.757
			C663.838,1374.417,660.913,1392.236,666.481,1398.145z"/>
		<path style="fill:#2B478B;" d="M860.321,1362.895c0,0-24.54,3.234-74.034,6.878c-51.286,3.8-105.649,11.884-114.483,29.112
			c-2.926,5.708-0.887,20.143,4.832,40.095c12.647,44.103,43.302,115.114,78.298,178.076
			c-89.907,5.205-212.225,25.053-212.225,25.053c-20.008,22.624-11.628,49.1-11.628,49.1c6.418,0.052,25.709,2.775,52.042,7.026
			c95.4,15.354,211.579,46.932,283.624,46.932c15.757,0,27.549-11.191,32.343-25.816v-0.018
			C928.689,1629.235,860.321,1362.895,860.321,1362.895z"/>
		<path style="fill:#2C3A64;" d="M676.636,1445.675c49.625-1.567,174.095-62.669,172.056-63.16
			c-23.18-5.7-43.906-9.646-62.405-12.138c-51.286,4.135-105.649,12.931-114.483,31.675
			C668.878,1408.262,670.917,1423.967,676.636,1445.675z"/>
		<path style="fill:#E58638;" d="M835.989,1074.513c0,0,2.888,225.777,83.961,248.807c-10.212-36.337,10.118-98.515,18.838-122.62
			C917.892,1142.637,879.423,1084.064,835.989,1074.513z"/>
		<path style="fill:#2B478B;" d="M862.15,942.234c0,0,62.443,12.993,68.542,67.713c4.441,39.852-39.132,130.093-39.132,130.093
			l-8.297-8.297c0,0,38.247-111.42,32.364-130.376c-7.543-24.303-43.445-60.664-76.463-46.14L862.15,942.234z"/>
		<path style="fill:#2B478B;" d="M666.481,1398.145c33.524,35.524,284.992-37.187,264.36-55.911
			c-5.248-4.757-8.758-11.251-10.892-18.914c-10.212-36.337,10.118-98.515,18.838-122.62c2.039-5.587,3.435-9.117,3.7-9.834
			l-12.704-12.685l-46.53-46.436c0,0-13.76,15.61-39.772,33.316c-34.09,23.236-89.227,50.078-162.052,50.191h-0.019
			c-1.02,6.116-2.114,12.874-3.209,20.065c-5.663,37.092-8.947,84.66-12.307,120.071c-0.132,1.228-0.246,2.473-0.377,3.757
			C663.838,1374.417,660.913,1392.236,666.481,1398.145z"/>
		<path style="fill:#2C3A64;" d="M843.482,1165.062c9.306,65.633,30.107,145.082,76.467,158.258
			c-10.212-36.337,10.118-98.515,18.838-122.62c-2.718-7.531-5.719-15.082-9.004-22.519l-46.53-46.436
			C883.254,1131.745,869.494,1147.355,843.482,1165.062z"/>
		<path style="fill:#FFB27D;" d="M1223.566,1313.55c-15.193,0-43.506-13.858-46.057-14.107c-21.658-2.077-0.771-23.387-0.771-23.387
			s34.036-7.477,39.746-7.041c1.866,0.149,4.963,0.771,8.31,1.593l-3.657,8.732c0,0,23.723,3.607,24.021,10.201
			C1245.468,1296.146,1231.03,1313.55,1223.566,1313.55z"/>
		<path style="fill:#F99746;" d="M1183.419,1286.603c5.216-15.083-2.053-19.79-2.053-19.79s-148.632-70.486-160.789-78.25
			c-12.156-7.764-93.866-156.582-93.866-156.582s-30.292-60.853-68.87-59.629c-33.524,1.064-52.155,21.962-62.489,43.872
			c-12.315,26.109-7.119,57.126,12.708,78.109c44.503,47.099,133.88,140.356,157.036,154.513
			c51.537,31.508,205.971,56.987,205.971,56.987S1179.322,1298.45,1183.419,1286.603z"/>
	</g>
	<path style="fill:#2E3552;" d="M2971.862,1761.219H257.788c-2.128,0-3.87-1.741-3.87-3.869v-3.629c0-2.128,1.741-3.869,3.87-3.869
		h2714.075c2.128,0,3.869,1.741,3.869,3.869v3.629C2975.731,1759.478,2973.99,1761.219,2971.862,1761.219z"/>
	<g>
		<path style="fill:#8097D8;" d="M1878.773,1649.635c-12.426,55.787-54.708,100.374-94.441,99.59
			c-39.732-0.785-61.869-46.645-49.443-102.431s54.708-100.374,94.44-99.59C1869.062,1547.989,1891.198,1593.85,1878.773,1649.635z"
			/>
		<path style="fill:#C2D2FF;" d="M1869.845,1647.575c-12.426,55.786-54.708,100.374-94.44,99.589s-61.869-46.645-49.443-102.431
			c12.425-55.786,54.707-100.374,94.44-99.589C1860.134,1545.929,1882.271,1591.789,1869.845,1647.575z"/>
		<g>
			<path style="fill:#8097D8;" d="M1779.23,1732.561c-0.296,0-0.592-0.003-0.887-0.009c-12.761-0.252-23.822-5.878-31.986-16.271
				c-13.028-16.581-17.033-43.421-10.714-71.796c10.641-47.772,47.029-86.137,81.131-85.415c12.762,0.251,23.822,5.877,31.987,16.27
				c13.028,16.582,17.033,43.422,10.713,71.796C1848.927,1694.494,1813.067,1732.561,1779.23,1732.561z M1815.884,1560.092
				c-33.379,0-68.785,37.707-79.234,84.618c-6.254,28.076-2.321,54.594,10.518,70.936c7.968,10.141,18.755,15.631,31.196,15.877
				c0.29,0.005,0.582,0.008,0.871,0.008c33.379,0.002,68.786-37.707,79.234-84.619c6.254-28.075,2.322-54.593-10.518-70.935
				c-7.968-10.142-18.755-15.631-31.196-15.877C1816.465,1560.095,1816.173,1560.092,1815.884,1560.092z"/>
		</g>
	</g>
</g>
</svg>
