<?xml version="1.0" encoding="utf-8"?>
<!-- Generator: Adobe Illustrator 27.5.0, SVG Export Plug-In . SVG Version: 6.00 Build 0)  -->
<svg version="1.1" id="_x3C_Layer_x3E_" xmlns="http://www.w3.org/2000/svg" xmlns:xlink="http://www.w3.org/1999/xlink" x="0px"
	 y="0px" viewBox="0 0 2760 1840" style="enable-background:new 0 0 2760 1840;" xml:space="preserve">
<rect style="fill:#FFFFFF;" width="2760" height="1840"/>
<g>
	<g>
		<path style="fill:#DCEAFF;" d="M2565.418,1471.1c-145.243,0-2372.538,0.168-2372.538,0
			c-81.586-82.721-105.617-280.189,71.077-470.901c64.725-69.845-106.99-203.792,4.477-418.676
			c42.358-81.659,211.55-222.016,658.051-113.1c189.852,46.31,350.951-27.637,386.616-54.338
			c20.091-15.027,42.096-28.162,65.665-39.511c245.726-118.902,670.293-43.178,855.614,99.743
			c26.261,20.26,145.675,125.079,51.554,269.135c-59.435,90.97,189.546,177.84,278.014,281.703
			C2788.895,1289.234,2567.457,1467.663,2565.418,1471.1z"/>
	</g>
	<g>
		<g>
			<g>
				
					<rect x="1864.264" y="825.505" transform="matrix(-0.9699 -0.2435 0.2435 -0.9699 3473.781 2118.2817)" style="fill:#ADC8FE;" width="7.134" height="37.812"/>
			</g>
			<g>
				<path style="fill:#ADC8FE;" d="M1870.014,813.304c-0.004,0.032,0,0-0.004,0.032c-0.344,2.833,0.475,5.876,3.147,6.876
					c3.574,1.337,5.994-0.988,6.897-4.583c0.003-0.017,0.23-0.919,0.234-0.935c0.305-1.258,3.219-0.229,3.641,0.994
					c0.758,2.197,0.782,4.68-0.144,7.084c-1.69,4.393-6.273,7.097-10.937,6.458c-6.185-0.846-10.1-6.818-8.622-12.702
					c0.413-1.643,1.2-3.096,2.248-4.285C1867.49,811.09,1870.223,811.78,1870.014,813.304z"/>
			</g>
			<g>
				<path style="fill:#ADC8FE;" d="M1866.504,876.268c0.005-0.032,0.001,0,0.005-0.032c0.344-2.834-0.475-5.877-3.146-6.877
					c-3.576-1.337-5.995,0.987-6.897,4.583c-0.006,0.018-0.23,0.918-0.235,0.936c-0.305,1.258-3.218,0.229-3.641-0.995
					c-0.757-2.196-0.782-4.68,0.143-7.085c1.691-4.393,6.274-7.096,10.938-6.457c6.185,0.847,10.1,6.819,8.623,12.702
					c-0.413,1.645-1.2,3.096-2.248,4.286C1869.027,878.481,1866.297,877.79,1866.504,876.268z"/>
			</g>
		</g>
		<g>
			<g>
				<path style="fill:#FFB27D;" d="M1850.813,710.815c0,0-5.029-6.305-8.294-11.822c-3.266-5.516-23.291-17.142-24.723-7.355
					c-1.313,8.984,5.17,6.306,7.534,13.397c2.364,7.094,5.254,10.14,19.965,16.629L1850.813,710.815z"/>
			</g>
			<g>
				<path style="fill:#E58638;" d="M1846.018,714.333c4.392-6.557,5.704-6.898,5.704-6.898s72.624,27.795,79.556,30.116
					c6.931,2.32,110.545,8.166,110.545,8.166l31.271,65.948c0,0-138.08-30.217-155.521-36.428
					c-28.822-10.263-75.053-50.463-75.053-50.463S1842.568,719.483,1846.018,714.333z"/>
			</g>
			<g>
				<path style="fill:#163560;" d="M2026.436,1330.963c0,0-1.582,24.461-6.316,30.214h-72.846c0.461-2.439,2.523-8.46,11.631-9.987
					c11.51-1.922,30.778-9.682,37.744-24.28C2003.984,1311.554,2026.436,1330.963,2026.436,1330.963z"/>
			</g>
			<g>
				<path style="fill:#163560;" d="M2155.923,1320.906c0,0,4.587,37.098-1.649,37.647c-0.828,0.072-30.008,0.022-37.941,1.161
					c-12.954,1.861-34.564,0.238-34.564,0.238c-2.706,0.107-4.479-2.704-3.102-4.942c1.513-2.454,4.396-5.076,9.897-6.092
					c11.472-2.119,30.589-10.204,37.292-24.915C2132.906,1308.527,2155.923,1320.906,2155.923,1320.906z"/>
			</g>
			<g>
				<path style="fill:#233862;" d="M1992.187,1005.427c0,0,18.313,61.491,70.808,168.285c17.19,34.979,28.688,63.286,36.379,85.563
					c0.999,2.873,1.934,5.641,2.793,8.303c1.403,4.295,2.652,8.319,3.759,12.09c0.843,2.888,1.606,5.625,2.31,8.214
					c6.879,25.703,6.738,37.388,6.738,37.388s11.918,4.31,26.161,2.948c7.254-0.704,23.166-7.228,23.166-7.228
					s-1.716-17.22-5.179-41.562c-0.391-2.678-0.796-5.432-1.217-8.274c-0.562-3.8-1.171-7.734-1.81-11.759
					c-0.438-2.709-0.89-5.461-1.357-8.229c-6.1-36.267-15.147-78.368-27.222-104.625c-24.804-53.891-29.858-201.38-29.858-201.38
					L1992.187,1005.427z"/>
			</g>
			<g>
				<path style="fill:#2A4E96;" d="M1962.891,974.053c0.576,34.561,3.322,107.048,15.6,190.607
					c5.928,40.381,9.125,72.742,10.764,97.802c0.188,2.948,0.358,5.79,0.498,8.528c0.25,4.414,0.438,8.572,0.594,12.463
					c0.108,2.947,0.203,5.745,0.265,8.408c0.687,26.975-0.764,39.363-0.764,39.363s1.045,0.613,3.213,1.391h0.017
					c3.697,1.333,10.639,3.128,21.09,3.128c4.695,0,8.736-0.599,11.981-1.362c5.646-1.316,8.876-3.127,8.876-3.127
					s2.762-15.574,5.896-38.166c0.391-2.708,0.766-5.506,1.154-8.408c0.516-3.829,1.014-7.81,1.529-11.924
					c0.328-2.753,0.671-5.536,0.998-8.379c4.15-35.893,7.363-78.531,3.9-107.332c-0.546-4.593-0.811-9.695-0.827-15.23v-0.016
					c-0.03-25.928,5.491-60.848,12.121-93.403c0,0,0.016-0.09,0.063-0.27c6.833-33.498,14.819-64.438,19.142-80.462
					c1.949-7.256,3.15-11.445,3.15-11.445l-3.634-0.119h-0.017l-28.703-0.884l-78.296-2.439l-4.82-0.149l-3.9-0.12
					C1962.78,952.508,1962.656,960.258,1962.891,974.053z"/>
			</g>
			<g>
				<path style="fill:#FFB27D;" d="M2043.927,729.655l-19.397,13.785l-28.034-5.663c0.388-2.453,2.239-12.62,3.925-21.829
					c0.102-0.542,0.203-1.086,0.299-1.617c1.443-7.835,2.689-14.565,2.689-14.565l26.184-12.522l9.763-4.668
					c-0.026,0.164-0.758,8.695-0.858,9.94C2036.664,714.631,2043.927,729.655,2043.927,729.655z"/>
			</g>
			<g>
				<path style="fill:#E58638;" d="M1998.457,722.699c0.615-0.248,38.136-10.873,42.211-9.581c4.076,1.292,6.489,8.859,6.489,8.859
					l-57.927,15.832C1989.23,737.81,1990.617,725.866,1998.457,722.699z"/>
			</g>
			<g>
				<path style="fill:#F99746;" d="M2099.488,964.262c-6.349,27.836-138.943-59.512-137.179-76.499
					c0.194-1.865,0.39-3.747,0.583-5.612c2.447-23.654,4.795-46.798,4.957-61.904c0.129-13.102,2.008-26.5,4.52-38.669
					c2.299-11.237,5.134-21.433,7.596-29.376c1.733-5.594,4.973-10.521,9.266-14.392c3.046-2.751,6.625-4.958,10.577-6.465
					c1.069-0.437,2.171-0.793,3.288-1.104c15.971-4.445,38.064-9.947,44.059-8.27c16.229,4.586,28.28,31.986,36.816,66.926
					C2099.942,854.299,2103.636,946.123,2099.488,964.262z"/>
			</g>
			<g>
				<path style="fill:#FCA56B;" d="M2036.53,692.905c-5.749,10.558-27.175,19.687-36.11,23.043c0.102-0.542,0.203-1.086,0.299-1.617
					c1.443-7.835,2.689-14.565,2.689-14.565l26.184-12.522C2035.38,687.157,2038.902,688.56,2036.53,692.905z"/>
			</g>
			<g>
				<path style="fill:#FFB27D;" d="M1990.686,698.294c0,0,47.236,14.14,55.961-14.222c8.724-28.363,20.695-45.639-9.096-55.866
					c-29.791-10.227-39.006-1.071-44.318,7.716C1987.922,644.71,1978.621,693.886,1990.686,698.294z"/>
			</g>
			<g>
				<path style="fill:#163560;" d="M1995.088,633.19c0,0,3.013,33.004,10.126,31.57c7.112-1.432,13.564-2.494,12.523,7.455
					c-1.042,9.948-10.906,21.436,11.017,23.196c21.922,1.76,53.436-52.488,47.414-62.76
					C2058.792,603.017,1969.974,597.037,1995.088,633.19z"/>
			</g>
			<g>
				<path style="fill:#E58638;" d="M1966.311,952.506c13.133,4.554-0.228-12.522,0-16.081c1.021-15.65-5.377-35.435-3.418-54.274
					l80.2-45.999C2043.093,836.151,2062.121,951.775,1966.311,952.506z"/>
			</g>
			<g>
				<path style="fill:#2A4E96;" d="M2099.488,964.262c-34.236,60.885-39.689,84.134-39.689,84.134
					c-29.797-3.259-80.857-59.47-97.053-74.475c0,0-2.201-69.171-0.437-86.158l24.751-0.685c0,0,44.737,10.88,56.335-3.886
					c11.598-14.765,6.577-87.238,6.577-87.238l33.998-7.057C2099.942,854.299,2108.678,947.919,2099.488,964.262z"/>
			</g>
			<g>
				<path style="fill:#FFB27D;" d="M1896.342,847.589c0,0-16.298-10.579-19.389-11.501c-3.091-0.921-13.227-1.92-13.696-1.153
					c-0.471,0.765-1.858,3.111-0.088,3.906c1.771,0.794,3.976,0.515,3.313,1.069c-0.661,0.555-7.324-2.487-8.86,0.772
					c-1.536,3.259-2.889,14.428,4.928,17.813c7.816,3.388,27.113,0.327,28.505,0.716
					C1902.854,862.502,1896.342,847.589,1896.342,847.589z"/>
			</g>
			<g>
				<path style="fill:#F99746;" d="M1896.19,844.729c0,0,79.542,12.976,86.591,9.683c11.248-5.256-4.366-82.692-4.366-82.692
					s-0.67-17.551,20.692-21.69c18.566-3.598,36.479,9.747,36.479,9.747s16.29,13.986,14.208,29.499
					c-4.613,34.388-11.789,104.328-35.759,115.05c-30.918,13.827-120.38-38.345-120.38-38.345s-2.979-3.5-2.556-10.001
					C1891.474,850.247,1896.19,844.729,1896.19,844.729z"/>
			</g>
			<g>
				<path style="fill:#2A4E96;" d="M2056.564,794.585l-6.592,1.369c0,0-13.931-57.864-60.742-58.145
					c3.046-2.751,6.625-4.958,10.577-6.465C2016.962,735.759,2046.748,749.823,2056.564,794.585z"/>
			</g>
			<g style="opacity:0.5;">
				<g>
					<path style="fill:#FFFFFF;" d="M2099.373,1259.275c0.999,2.873,1.934,5.641,2.793,8.303c17.58,0.016,34.272-3.141,46.611-6.223
						c2.652-0.659,5.117-1.332,7.317-1.96c-0.438-2.709-0.89-5.461-1.357-8.229
						C2142.242,1254.772,2121.26,1259.754,2099.373,1259.275z"/>
				</g>
			</g>
			<g style="opacity:0.5;">
				<g>
					<path style="fill:#FFFFFF;" d="M2105.925,1279.668c0.843,2.888,1.606,5.625,2.31,8.214c15.989-0.435,31.012-3.322,42.354-6.149
						c3.15-0.793,6.006-1.586,8.533-2.304c-0.391-2.678-0.796-5.432-1.217-8.274
						C2146.453,1274.506,2126.86,1279.414,2105.925,1279.668z"/>
				</g>
			</g>
			<g>
				<path style="fill:#FFB27D;" d="M1848.837,708.245c0,0-0.913-6.275-2.84-10.828c-1.927-4.555-4.378-10.333-4.903-7.355
					c-0.525,2.977,1.4,8.055,0,10.508C1839.691,703.021,1848.837,708.245,1848.837,708.245z"/>
			</g>
		</g>
		<g>
			<g>
				<g>
					<path style="fill:#FFFFFF;" d="M1989.254,1262.462c0.188,2.948,0.358,5.79,0.498,8.528c16.225,2.917,32.043,3.021,44.055,2.439
						c3.65-0.18,6.941-0.419,9.797-0.674c0.328-2.753,0.671-5.536,0.998-8.379C2032.684,1265.5,2011.078,1266.741,1989.254,1262.462
						z"/>
				</g>
			</g>
			<g>
				<g>
					<path style="fill:#FFFFFF;" d="M1990.346,1283.453c0.108,2.947,0.203,5.745,0.265,8.408c14.991,2.349,29.469,2.424,40.638,1.87
						c3.604-0.179,6.849-0.403,9.672-0.644c0.391-2.708,0.766-5.506,1.154-8.408
						C2030.827,1285.727,2010.922,1286.909,1990.346,1283.453z"/>
				</g>
			</g>
		</g>
	</g>
	<g>
		<g>
			<path style="fill:#BDD1F9;" d="M617.776,850.762v1.482c0,28.372-24.042,51.448-53.581,51.448H403.62
				c-17.843,0-32.354,13.934-32.354,31.062v4.907c0,17.129,14.512,31.063,32.354,31.063h177.272c3.604,0,6.536,2.921,6.536,6.525
				c0,3.825-1.555,7.293-4.066,9.805c-2.501,2.512-5.969,4.056-9.794,4.056H403.62c-29.548,0-53.591-23.076-53.591-51.448v-4.907
				c0-28.36,24.043-51.437,53.591-51.437h160.575c17.832,0,32.354-13.945,32.354-31.073v-1.482
				c0-17.129-14.523-31.072-32.354-31.072H400.626c-29.539,0-53.581-23.076-53.581-51.448v-6.893
				c0-28.373,24.043-51.448,53.581-51.448h163.569c17.832,0,32.354-13.934,32.354-31.063c0-17.128-14.523-31.072-32.354-31.072
				H241.732c1.922-6.704,4.108-13.492,6.578-20.376h315.885c29.539,0,53.581,23.076,53.581,51.448
				c0,28.361-24.042,51.448-53.581,51.448H400.626c-17.833,0-32.355,13.934-32.355,31.063v6.893
				c0,17.139,14.522,31.072,32.355,31.072h163.569C593.734,799.313,617.776,822.391,617.776,850.762z"/>
		</g>
	</g>
	<g>
		<g>
			<g>
				<rect x="1266.698" y="633.484" style="fill:#99B9FF;" width="274.521" height="6.169"/>
			</g>
			<g>
				<path style="fill:#99B9FF;" d="M1263.529,635.667c0-3.597,2.915-6.511,6.511-6.511c3.597,0,6.512,2.914,6.512,6.511
					s-2.915,6.511-6.512,6.511C1266.444,642.178,1263.529,639.264,1263.529,635.667z"/>
			</g>
			<g>
				<path style="fill:#99B9FF;" d="M1532.828,635.667c0-3.597,2.915-6.511,6.511-6.511c3.597,0,6.511,2.914,6.511,6.511
					s-2.914,6.511-6.511,6.511C1535.743,642.178,1532.828,639.264,1532.828,635.667z"/>
			</g>
		</g>
		<g>
			<g>
				<path style="fill:#F99746;" d="M1514.549,633.651v212.256c-21.074,3.598-76.076,0.514-107.432,4.111
					c-31.357,3.6-102.51-1.233-102.51-1.233V634.639c0-3.516,2.843-6.363,6.358-6.368c31.243-0.053,168.207-0.257,197.894-0.304
					C1512.005,627.961,1514.549,630.506,1514.549,633.651z"/>
			</g>
			<g>
				<path style="fill:#FFAF73;" d="M1514.549,763.245v82.662c-21.074,3.598-76.076,0.514-107.432,4.111
					c-31.357,3.6-102.51-1.233-102.51-1.233v-79.552c0.488-2.843,0.771-4.487,0.771-4.487s45.708,3.542,86.316,0.972
					C1432.099,763.163,1480.644,769.764,1514.549,763.245z"/>
			</g>
			<g>
				<path style="fill:#FFFFFF;" d="M1343.107,811.822c-17.177,0-37.263-0.825-38.391-0.873l0.213-5.135
					c0.37,0.015,37.075,1.524,53.713,0.517l3.921-0.242c20.147-1.247,62.07-3.846,79.587-0.927
					c18.002,2.999,73.552-0.678,74.112-0.716l0.343,5.13c-2.307,0.155-56.716,3.754-75.3,0.656
					c-16.94-2.824-60.025-0.153-78.425,0.987l-3.928,0.242C1354.617,811.725,1349.034,811.822,1343.107,811.822z"/>
			</g>
			<g>
				<path style="fill:#FFFFFF;" d="M1343.104,823.132c-17.177,0-37.259-0.826-38.387-0.873l0.213-5.136
					c0.371,0.015,37.076,1.525,53.713,0.517l3.921-0.241c20.147-1.249,62.07-3.846,79.587-0.928c18.002,3,73.552-0.677,74.112-0.715
					l0.343,5.129c-2.307,0.154-56.715,3.753-75.3,0.656c-16.94-2.825-60.025-0.153-78.425,0.987l-3.928,0.243
					C1354.616,823.033,1349.033,823.132,1343.104,823.132z"/>
			</g>
		</g>
	</g>
	<g>
		<g>
			<path style="fill:#99B9FF;" d="M1935.541,621.539c0,0-65.559,52.878-72.203,49.546c-6.645-3.313-7.858-11.681-7.858-11.681
				c-13.72,2.646-25.087,20.344-30.203,29.613c-1.861,3.392-2.88,5.665-2.88,5.665c-6.115,1.47-9.624-3.098-9.624-3.098
				c7.174-27.124,36.572-59.776,66.734-70.889C1909.65,609.583,1932.307,618.893,1935.541,621.539z"/>
		</g>
		<g>
			<g>
				<path style="fill:#D4E4FF;" d="M1941.892,627.9c5.531,11.752-8.468,29.979-31.268,40.71c-22.8,10.729-45.767,9.901-51.299-1.852
					c-5.53-11.752,8.468-29.979,31.269-40.71C1913.394,615.319,1936.36,616.148,1941.892,627.9z"/>
			</g>
			<g>
				<g>
					<path style="fill:#99B9FF;" d="M1905.028,647.403c0.306,0.651-0.6,1.724-2.025,2.395c-1.425,0.671-2.829,0.685-3.137,0.035
						c-0.306-0.652,0.601-1.725,2.026-2.396C1903.317,646.768,1904.722,646.751,1905.028,647.403z"/>
				</g>
				<g>
					<path style="fill:#99B9FF;" d="M1887.551,655.629c0.308,0.651-0.601,1.724-2.025,2.394c-1.425,0.672-2.829,0.686-3.137,0.035
						c-0.306-0.651,0.601-1.724,2.026-2.395C1885.84,654.992,1887.244,654.977,1887.551,655.629z"/>
				</g>
				<g>
					<path style="fill:#99B9FF;" d="M1913.768,643.29c0.306,0.651-0.601,1.724-2.025,2.395c-1.425,0.671-2.83,0.687-3.137,0.035
						c-0.307-0.652,0.601-1.725,2.025-2.396C1912.057,642.654,1913.46,642.638,1913.768,643.29z"/>
				</g>
				<g>
					<path style="fill:#99B9FF;" d="M1922.506,639.177c0.307,0.652-0.601,1.725-2.025,2.396c-1.425,0.67-2.829,0.685-3.136,0.034
						c-0.308-0.652,0.601-1.724,2.025-2.396C1920.795,638.541,1922.199,638.525,1922.506,639.177z"/>
				</g>
				<g>
					<path style="fill:#99B9FF;" d="M1933.824,633.85c0.307,0.652-0.6,1.724-2.024,2.396c-1.425,0.67-2.829,0.686-3.137,0.034
						c-0.306-0.651,0.601-1.724,2.026-2.394C1932.114,633.213,1933.519,633.199,1933.824,633.85z"/>
				</g>
				<g>
					<path style="fill:#99B9FF;" d="M1896.29,651.517c0.306,0.651-0.601,1.723-2.026,2.394c-1.425,0.671-2.829,0.685-3.136,0.035
						c-0.307-0.652,0.601-1.725,2.025-2.395C1894.578,650.879,1895.982,650.864,1896.29,651.517z"/>
				</g>
				<g>
					<path style="fill:#99B9FF;" d="M1876.812,660.684c0.307,0.65-0.6,1.724-2.024,2.393c-1.426,0.671-2.83,0.687-3.137,0.034
						c-0.307-0.651,0.6-1.723,2.025-2.395C1875.102,660.046,1876.506,660.031,1876.812,660.684z"/>
				</g>
				<g>
					<path style="fill:#99B9FF;" d="M1902.554,642.146c0.307,0.651-0.601,1.724-2.025,2.394c-1.426,0.671-2.829,0.687-3.136,0.035
						c-0.307-0.652,0.6-1.725,2.025-2.396C1900.843,641.51,1902.247,641.493,1902.554,642.146z"/>
				</g>
				<g>
					<path style="fill:#99B9FF;" d="M1885.076,650.372c0.308,0.65-0.6,1.723-2.024,2.394s-2.829,0.686-3.137,0.034
						c-0.307-0.651,0.6-1.724,2.026-2.393C1883.366,649.734,1884.77,649.72,1885.076,650.372z"/>
				</g>
				<g>
					<path style="fill:#99B9FF;" d="M1875.987,653.739c0.306,0.651-0.601,1.723-2.025,2.393c-1.426,0.672-2.829,0.686-3.137,0.035
						c-0.306-0.651,0.601-1.725,2.025-2.395C1874.276,653.102,1875.681,653.087,1875.987,653.739z"/>
				</g>
				<g>
					<path style="fill:#99B9FF;" d="M1926.859,629.796c0.307,0.652-0.601,1.724-2.025,2.396c-1.425,0.67-2.83,0.686-3.137,0.033
						c-0.306-0.651,0.601-1.723,2.026-2.393C1925.148,629.159,1926.552,629.144,1926.859,629.796z"/>
				</g>
				<g>
					<path style="fill:#99B9FF;" d="M1881.831,645.49c0.308,0.651-0.599,1.725-2.024,2.395c-1.426,0.67-2.83,0.686-3.136,0.034
						c-0.307-0.651,0.6-1.724,2.024-2.393C1880.121,644.854,1881.525,644.839,1881.831,645.49z"/>
				</g>
				<g>
					<path style="fill:#99B9FF;" d="M1911.293,638.032c0.307,0.652-0.601,1.724-2.026,2.395c-1.425,0.671-2.829,0.686-3.136,0.035
						c-0.306-0.652,0.601-1.724,2.025-2.396C1909.582,637.396,1910.985,637.381,1911.293,638.032z"/>
				</g>
				<g>
					<path style="fill:#99B9FF;" d="M1920.031,633.92c0.307,0.652-0.601,1.724-2.025,2.395s-2.829,0.686-3.136,0.034
						c-0.307-0.652,0.601-1.723,2.025-2.393C1918.32,633.283,1919.725,633.269,1920.031,633.92z"/>
				</g>
				<g>
					<path style="fill:#99B9FF;" d="M1893.814,646.259c0.308,0.651-0.6,1.723-2.025,2.395c-1.425,0.671-2.829,0.686-3.135,0.035
						c-0.308-0.652,0.6-1.726,2.024-2.395C1892.104,645.623,1893.508,645.606,1893.814,646.259z"/>
				</g>
				<g>
					<path style="fill:#99B9FF;" d="M1907.233,652.088c0.307,0.652-0.6,1.724-2.025,2.396c-1.425,0.67-2.829,0.685-3.136,0.034
						c-0.307-0.652,0.6-1.725,2.025-2.396C1905.522,651.451,1906.927,651.437,1907.233,652.088z"/>
				</g>
				<g>
					<path style="fill:#99B9FF;" d="M1889.756,660.313c0.307,0.651-0.601,1.724-2.025,2.395s-2.829,0.686-3.136,0.035
						c-0.308-0.652,0.601-1.724,2.025-2.396C1888.045,659.678,1889.449,659.661,1889.756,660.313z"/>
				</g>
				<g>
					<path style="fill:#99B9FF;" d="M1883.662,666.063c0.307,0.652-0.6,1.725-2.025,2.396c-1.425,0.67-2.829,0.687-3.135,0.034
						c-0.308-0.652,0.599-1.724,2.024-2.395C1881.951,665.428,1883.355,665.412,1883.662,666.063z"/>
				</g>
				<g>
					<path style="fill:#99B9FF;" d="M1915.972,647.975c0.308,0.652-0.6,1.725-2.024,2.396c-1.426,0.67-2.83,0.686-3.136,0.034
						c-0.308-0.651,0.599-1.724,2.024-2.394S1915.665,647.323,1915.972,647.975z"/>
				</g>
				<g>
					<path style="fill:#99B9FF;" d="M1924.71,643.862c0.308,0.651-0.6,1.725-2.024,2.394c-1.426,0.67-2.83,0.687-3.136,0.034
						c-0.308-0.651,0.6-1.724,2.024-2.393C1923,643.226,1924.403,643.211,1924.71,643.862z"/>
				</g>
				<g>
					<path style="fill:#99B9FF;" d="M1931.89,640.483c0.306,0.652-0.601,1.725-2.026,2.396c-1.425,0.67-2.828,0.687-3.135,0.034
						c-0.308-0.652,0.6-1.724,2.024-2.394S1931.582,639.832,1931.89,640.483z"/>
				</g>
				<g>
					<path style="fill:#99B9FF;" d="M1927.186,649.119c0.307,0.652-0.601,1.725-2.026,2.396c-1.425,0.67-2.829,0.687-3.136,0.034
						c-0.306-0.651,0.601-1.724,2.025-2.395S1926.878,648.468,1927.186,649.119z"/>
				</g>
				<g>
					<path style="fill:#99B9FF;" d="M1898.494,656.201c0.307,0.652-0.6,1.723-2.024,2.394c-1.426,0.672-2.829,0.687-3.137,0.035
						c-0.307-0.652,0.601-1.724,2.025-2.394C1896.784,655.565,1898.188,655.549,1898.494,656.201z"/>
				</g>
				<g>
					<path style="fill:#99B9FF;" d="M1909.708,657.346c0.307,0.652-0.601,1.723-2.026,2.394c-1.425,0.671-2.829,0.686-3.135,0.034
						c-0.307-0.652,0.6-1.724,2.024-2.395C1907.997,656.709,1909.4,656.694,1909.708,657.346z"/>
				</g>
				<g>
					<path style="fill:#99B9FF;" d="M1897.481,631.368c0.306,0.651-0.6,1.723-2.025,2.394c-1.425,0.671-2.829,0.685-3.137,0.034
						c-0.306-0.651,0.601-1.725,2.026-2.395C1895.771,630.731,1897.175,630.716,1897.481,631.368z"/>
				</g>
				<g>
					<path style="fill:#99B9FF;" d="M1912.284,662.818c0.306,0.652-0.601,1.725-2.025,2.396c-1.426,0.67-2.829,0.686-3.137,0.034
						c-0.306-0.651,0.601-1.724,2.025-2.394C1910.573,662.183,1911.978,662.167,1912.284,662.818z"/>
				</g>
				<g>
					<path style="fill:#99B9FF;" d="M1918.446,653.232c0.308,0.652-0.601,1.724-2.025,2.396c-1.425,0.67-2.829,0.687-3.136,0.034
						c-0.307-0.652,0.601-1.724,2.025-2.395S1918.14,652.581,1918.446,653.232z"/>
				</g>
				<g>
					<path style="fill:#99B9FF;" d="M1900.969,661.458c0.307,0.651-0.6,1.724-2.025,2.394s-2.829,0.687-3.136,0.035
						c-0.307-0.652,0.6-1.724,2.025-2.396C1899.258,660.822,1900.662,660.807,1900.969,661.458z"/>
				</g>
				<g>
					<path style="fill:#99B9FF;" d="M1893.049,665.185c0.308,0.652-0.6,1.724-2.024,2.395s-2.829,0.687-3.136,0.034
						c-0.308-0.651,0.6-1.723,2.025-2.394C1891.339,664.549,1892.743,664.534,1893.049,665.185z"/>
				</g>
				<g>
					<path style="fill:#99B9FF;" d="M1900.085,636.899c0.307,0.651-0.601,1.725-2.025,2.394c-1.426,0.671-2.829,0.687-3.136,0.034
						c-0.307-0.651,0.6-1.724,2.025-2.394C1898.374,636.264,1899.778,636.248,1900.085,636.899z"/>
				</g>
				<g>
					<path style="fill:#99B9FF;" d="M1908.824,632.787c0.306,0.65-0.601,1.724-2.026,2.394c-1.425,0.672-2.829,0.686-3.136,0.035
						c-0.306-0.651,0.601-1.724,2.025-2.395C1907.113,632.15,1908.517,632.135,1908.824,632.787z"/>
				</g>
				<g>
					<path style="fill:#99B9FF;" d="M1906.775,628.435c0.307,0.651-0.6,1.724-2.025,2.395s-2.83,0.687-3.136,0.035
						c-0.307-0.651,0.6-1.725,2.024-2.395C1905.064,627.799,1906.469,627.783,1906.775,628.435z"/>
				</g>
				<g>
					<path style="fill:#99B9FF;" d="M1920.467,657.527c0.308,0.65-0.6,1.723-2.025,2.393c-1.425,0.672-2.829,0.686-3.135,0.035
						c-0.308-0.651,0.599-1.724,2.024-2.395C1918.756,656.891,1920.16,656.875,1920.467,657.527z"/>
				</g>
				<g>
					<path style="fill:#99B9FF;" d="M1903.842,665.351c0.307,0.652-0.6,1.724-2.024,2.396c-1.426,0.67-2.829,0.685-3.137,0.034
						c-0.307-0.652,0.601-1.725,2.026-2.395C1902.132,664.715,1903.536,664.699,1903.842,665.351z"/>
				</g>
				<g>
					<path style="fill:#99B9FF;" d="M1889.298,636.66c0.307,0.652-0.6,1.725-2.025,2.394c-1.425,0.671-2.829,0.687-3.136,0.034
						c-0.307-0.651,0.6-1.723,2.025-2.394C1887.587,636.023,1888.991,636.01,1889.298,636.66z"/>
				</g>
				<g>
					<path style="fill:#99B9FF;" d="M1917.563,628.675c0.307,0.651-0.601,1.723-2.025,2.394s-2.829,0.685-3.136,0.034
						c-0.308-0.651,0.601-1.724,2.025-2.393C1915.852,628.038,1917.256,628.023,1917.563,628.675z"/>
				</g>
				<g>
					<path style="fill:#99B9FF;" d="M1891.346,641.013c0.308,0.651-0.6,1.724-2.025,2.395c-1.425,0.67-2.829,0.687-3.135,0.034
						c-0.308-0.651,0.6-1.724,2.024-2.395S1891.039,640.361,1891.346,641.013z"/>
				</g>
			</g>
		</g>
		<g>
			<path style="fill:#AEC3FF;" d="M1754.496,1358.317h-13.539V600.056c0-3.074,2.492-5.566,5.566-5.566h2.874
				c2.816,0,5.099,2.282,5.099,5.099V1358.317z"/>
		</g>
		<g>
			<g>
				<path style="fill:#99B9FF;" d="M1754.89,894.996l-0.784-9.25c8.193-0.257,15.393-2.604,22.01-7.178
					c21.342-14.749,34.117-51.033,36.94-104.923c2.166-41.331-2.43-78.552-2.477-78.923l15.187-0.707
					c0.775,6.169,18.373,151.559-38.213,190.67C1778.212,891.142,1767.222,894.61,1754.89,894.996z"/>
			</g>
		</g>
		<g>
			<path style="fill:#AEC3FF;" d="M1879.706,1050.083h-122.29c-5.351,0-9.689-4.339-9.689-9.689l0,0c0-5.353,4.339-9.69,9.689-9.69
				h122.29c5.353,0,9.69,4.338,9.69,9.69l0,0C1889.396,1045.744,1885.059,1050.083,1879.706,1050.083z"/>
		</g>
		<g>
			<path style="fill:#AEC3FF;" d="M1834.674,703.649h-85.549c-4.492,0-8.168-3.676-8.168-8.168l0,0c0-4.492,3.676-8.168,8.168-8.168
				h85.549c4.492,0,8.167,3.676,8.167,8.168l0,0C1842.841,699.974,1839.166,703.649,1834.674,703.649z"/>
		</g>
		<g>
			<g>
				<polygon style="fill:#F99746;" points="1874.988,906.496 1867.564,1011.127 1837.164,1011.127 1831.111,906.496 				"/>
			</g>
			<g>
				<rect x="1837.164" y="1011.127" style="fill:#FFFFFF;" width="30.4" height="19.576"/>
			</g>
			<g>
				<rect x="1831.111" y="899.971" style="fill:#D87932;" width="43.877" height="6.525"/>
			</g>
			<g>
				<path style="fill:#FFFFFF;" d="M1865.201,942.273c0-3.542-2.871-6.413-6.413-6.413s-6.413,2.871-6.413,6.413
					c0,3.541,2.871,6.413,6.413,6.413S1865.201,945.815,1865.201,942.273z"/>
			</g>
			<g>
				<path style="fill:#FFFFFF;" d="M1856.65,957.844c0-4.387-3.556-7.943-7.942-7.943c-4.388,0-7.943,3.557-7.943,7.943
					c0,4.388,3.556,7.943,7.943,7.943C1853.095,965.787,1856.65,962.231,1856.65,957.844z"/>
			</g>
			<g>
				<path style="fill:#FFFFFF;" d="M1849.297,944.677c0-2.214-1.795-4.01-4.01-4.01s-4.01,1.796-4.01,4.01
					c0,2.214,1.795,4.01,4.01,4.01S1849.297,946.891,1849.297,944.677z"/>
			</g>
			<g>
				<path style="fill:#F99746;" d="M1847.912,943.291c0-0.766-0.621-1.386-1.387-1.386s-1.387,0.62-1.387,1.386
					c0,0.766,0.621,1.386,1.387,1.386S1847.912,944.057,1847.912,943.291z"/>
			</g>
			<g>
				<path style="fill:#F99746;" d="M1847.632,960.911c0-1.377-1.115-2.493-2.493-2.493c-1.376,0-2.493,1.116-2.493,2.493
					c0,1.376,1.117,2.492,2.493,2.492C1846.517,963.403,1847.632,962.287,1847.632,960.911z"/>
			</g>
			<g>
				<path style="fill:#F99746;" d="M1863.726,944.33c0-1.49-1.208-2.697-2.697-2.697c-1.49,0-2.698,1.207-2.698,2.697
					c0,1.49,1.208,2.697,2.698,2.697C1862.518,947.027,1863.726,945.82,1863.726,944.33z"/>
			</g>
		</g>
		<g>
			<g>
				<polygon style="fill:#F99746;" points="1819.636,937.208 1812.211,1011.127 1781.811,1011.127 1775.758,937.208 				"/>
			</g>
			<g>
				<rect x="1781.811" y="1011.127" style="fill:#FFFFFF;" width="30.4" height="19.576"/>
			</g>
			<g>
				<rect x="1775.758" y="932.598" style="fill:#D87932;" width="43.878" height="4.61"/>
			</g>
			<g>
				<path style="fill:#FFFFFF;" d="M1809.849,957.236c0-3.541-2.872-6.413-6.413-6.413c-3.542,0-6.413,2.872-6.413,6.413
					c0,3.542,2.871,6.413,6.413,6.413C1806.977,963.649,1809.849,960.778,1809.849,957.236z"/>
			</g>
			<g>
				<path style="fill:#FFFFFF;" d="M1801.297,972.808c0-4.388-3.556-7.944-7.941-7.944c-4.389,0-7.944,3.557-7.944,7.944
					c0,4.386,3.556,7.942,7.944,7.942C1797.741,980.75,1801.297,977.193,1801.297,972.808z"/>
			</g>
			<g>
				<path style="fill:#FFFFFF;" d="M1793.944,959.64c0-2.214-1.795-4.01-4.01-4.01s-4.01,1.796-4.01,4.01
					c0,2.215,1.795,4.01,4.01,4.01S1793.944,961.854,1793.944,959.64z"/>
			</g>
			<g>
				<path style="fill:#F99746;" d="M1792.558,958.254c0-0.766-0.62-1.386-1.386-1.386s-1.386,0.62-1.386,1.386
					c0,0.766,0.62,1.386,1.386,1.386S1792.558,959.019,1792.558,958.254z"/>
			</g>
			<g>
				<path style="fill:#F99746;" d="M1792.279,975.874c0-1.377-1.116-2.492-2.493-2.492s-2.493,1.115-2.493,2.492
					s1.116,2.493,2.493,2.493S1792.279,977.251,1792.279,975.874z"/>
			</g>
			<g>
				<path style="fill:#F99746;" d="M1808.372,959.293c0-1.489-1.207-2.697-2.698-2.697c-1.489,0-2.696,1.208-2.696,2.697
					c0,1.49,1.207,2.698,2.696,2.698C1807.165,961.991,1808.372,960.783,1808.372,959.293z"/>
			</g>
		</g>
		<g>
			<path style="fill:#7FA5EA;" d="M1855.479,659.404c-13.72,2.646-25.087,20.344-30.203,29.613
				c0.628-11.523,22.441-37.787,28.32-35.709C1859.478,655.367,1855.479,659.404,1855.479,659.404z"/>
		</g>
	</g>
	<g>
		<g>
			<g>
				<polygon style="fill:#95B1EF;" points="1834.367,1427.832 1813.013,1468.001 1802.006,1468.001 1810.536,1427.832 				"/>
			</g>
		</g>
		<g>
			<g>
				<g>
					<polygon style="fill:#95B1EF;" points="2289.645,1427.832 2311,1468.001 2322.008,1468.001 2313.479,1427.832 					"/>
				</g>
			</g>
		</g>
		<g>
			<path style="fill:#BDD1F9;" d="M2520.579,1146.046l-53.198,145.595c-32.664,89.397-117.704,148.864-212.884,148.864h-383.232
				c-82.071,0-153.036-57.223-170.433-137.43l-21.157-97.567c51.361,8.191,105.864,12.67,161.466,14.35
				C2162.528,1229.617,2520.579,1146.046,2520.579,1146.046z"/>
		</g>
		<g>
			<path style="fill:#AEC3FF;" d="M2062.537,1440.505h-191.272c-82.071,0-153.036-57.223-170.433-137.43l-21.157-97.567
				c51.361,8.191,105.864,12.67,161.466,14.35C1838.854,1255.686,1841.779,1411.912,2062.537,1440.505z"/>
		</g>
		<g>
			<g>
				<path style="fill:#95B1EF;" d="M1932.666,1226.672c-44.379,0-84.259-1.321-117.396-3.046
					c-93.051-4.84-154.59-13.817-155.2-13.907c-4.835-0.713-8.175-5.21-7.462-10.044c0.714-4.834,5.207-8.171,10.045-7.463
					c0.604,0.09,61.499,8.966,153.78,13.755c85.088,4.417,215.033,6.162,350.886-10.599
					c136.012-16.779,229.233-33.409,283.487-44.407c58.79-11.915,85.759-19.966,86.024-20.046c4.678-1.407,9.613,1.242,11.022,5.92
					c1.41,4.678-1.237,9.612-5.916,11.023c-1.103,0.332-27.719,8.292-87.132,20.35c-54.618,11.082-148.455,27.839-285.318,44.724
					C2085.23,1223.326,2003.262,1226.672,1932.666,1226.672z"/>
			</g>
		</g>
	</g>
	<g>
		<rect x="933.769" y="577.688" style="fill:#99B9FF;" width="254.362" height="323.94"/>
	</g>
	<g>
		<rect x="944.079" y="587.824" style="fill:#BDD1F9;" width="233.744" height="304.917"/>
	</g>
	<g>
		<g>
			<rect x="288.856" y="1081.756" style="fill:#BDD1F9;" width="314.299" height="386.902"/>
		</g>
		<g>
			<rect x="288.856" y="1139.445" style="fill:#AEC3FF;" width="314.299" height="5.254"/>
		</g>
		<g>
			<g>
				<path style="fill:#AEC3FF;" d="M381.853,1134.325h-83.539v-44.651h83.539V1134.325z M299.365,1133.273h81.437v-42.549h-81.437
					V1133.273z"/>
			</g>
			<g>
				<path style="fill:#AEC3FF;" d="M427.306,1112c0-8.269,6.702-14.971,14.97-14.971c8.268,0,14.97,6.702,14.97,14.971
					c0,8.268-6.701,14.97-14.97,14.97C434.008,1126.97,427.306,1120.268,427.306,1112z"/>
			</g>
			<g>
				<path style="fill:#AEC3FF;" d="M467.763,1112c0-6.741,5.464-12.205,12.204-12.205s12.204,5.464,12.204,12.205
					c0,6.74-5.464,12.204-12.204,12.204S467.763,1118.74,467.763,1112z"/>
			</g>
			<g>
				<rect x="511.279" y="1097.651" style="fill:#AEC3FF;" width="66.901" height="28.695"/>
			</g>
		</g>
		<g>
			<g>
				<circle style="fill:#AEC3FF;" cx="442.275" cy="1288.479" r="116.454"/>
			</g>
			<g>
				
					<ellipse transform="matrix(0.9988 -0.0494 0.0494 0.9988 -63.048 23.3964)" style="fill:#95B1EF;" cx="442.276" cy="1288.479" rx="93.635" ry="93.636"/>
			</g>
			<g>
				<path style="fill:#AEC3FF;" d="M534.337,1313.657h-6.295c-7.789,0-14.163-6.373-14.163-14.163v-12.59
					c0-7.79,6.374-14.163,14.163-14.163h6.295c7.79,0,14.164,6.373,14.164,14.163v12.59
					C548.501,1307.284,542.127,1313.657,534.337,1313.657z"/>
			</g>
		</g>
	</g>
	<g>
		<g>
			<rect x="900.077" y="1076.516" style="fill:#BDD1F9;" width="348.97" height="391.485"/>
		</g>
		<g>
			<rect x="900.077" y="1196.61" style="fill:#AEC3FF;" width="348.97" height="4.634"/>
		</g>
		<g>
			<path style="fill:#AEC3FF;" d="M1105.231,1097.651h-56.51c-1.864,0-3.39-1.525-3.39-3.39v-0.977c0-1.864,1.525-3.39,3.39-3.39
				h56.51c1.864,0,3.39,1.525,3.39,3.39v0.977C1108.621,1096.126,1107.096,1097.651,1105.231,1097.651z"/>
		</g>
		<g>
			<rect x="900.077" y="1338.685" style="fill:#AEC3FF;" width="348.97" height="4.634"/>
		</g>
		<g>
			<path style="fill:#AEC3FF;" d="M1105.231,1218.577h-56.51c-1.864,0-3.39-1.526-3.39-3.39v-0.977c0-1.865,1.525-3.391,3.39-3.391
				h56.51c1.864,0,3.39,1.525,3.39,3.391v0.977C1108.621,1217.051,1107.096,1218.577,1105.231,1218.577z"/>
		</g>
		<g>
			<path style="fill:#AEC3FF;" d="M1105.231,1366.981h-56.51c-1.864,0-3.39-1.525-3.39-3.39v-0.976c0-1.864,1.525-3.39,3.39-3.39
				h56.51c1.864,0,3.39,1.525,3.39,3.39v0.976C1108.621,1365.456,1107.096,1366.981,1105.231,1366.981z"/>
		</g>
	</g>
	<g>
		<rect x="878.338" y="1056.104" style="fill:#95B1EF;" width="389.969" height="25.652"/>
	</g>
	<g>
		<g>
			<path style="fill:#95B1EF;" d="M1056.232,1000.199L1056.232,1000.199c-4.286,0-7.792-3.507-7.792-7.792v-70.906
				c0-4.285,3.506-7.792,7.792-7.792l0,0c4.285,0,7.792,3.507,7.792,7.792v70.906
				C1064.024,996.692,1060.518,1000.199,1056.232,1000.199z"/>
		</g>
		<g>
			<path style="fill:#FFB27D;" d="M1014.924,961.481c0,0,18.838-7.085,25.19-2.775c6.352,4.309-1.972,17.67-7.01,18.546
				c-5.038,0.877-19.714-1.314-19.714-1.314L1014.924,961.481z"/>
		</g>
		<g>
			<path style="fill:#ED7D2B;" d="M1017.963,970.497c2.959-8.062,0.464-12.071,0.464-12.071s-69.33-13.432-75.792-17.732
				c-6.461-4.3-64.951-85.409-64.951-85.409l-91.913,8.557c0,0,114.654,96.313,131.24,106.888
				c27.408,17.473,93.665,7.518,93.665,7.518S1015.639,976.829,1017.963,970.497z"/>
		</g>
		<g>
			<g>
				
					<rect x="1028.79" y="946.229" transform="matrix(-0.7715 -0.6362 0.6362 -0.7715 1213.835 2372.5505)" style="fill:#35488B;" width="8.33" height="44.156"/>
			</g>
			<g>
				<path style="fill:#35488B;" d="M1050.852,936.592c-0.021,0.032-0.001,0-0.021,0.032c-1.782,2.815-2.445,6.436-0.127,8.829
					c3.1,3.203,6.817,1.964,9.57-1.376c0.014-0.015,0.704-0.852,0.717-0.869c0.952-1.174,3.51,1.372,3.342,2.874
					c-0.302,2.697-1.52,5.327-3.703,7.4c-3.984,3.787-10.172,4.34-14.771,1.329c-6.099-3.992-7.234-12.254-2.727-17.719
					c1.26-1.527,2.816-2.663,4.519-3.394C1049.299,932.991,1051.833,935.09,1050.852,936.592z"/>
			</g>
			<g>
				<path style="fill:#35488B;" d="M1015.588,1001.241c0.021-0.032,0.002,0.001,0.021-0.032c1.783-2.815,2.445-6.436,0.128-8.829
					c-3.101-3.202-6.817-1.964-9.571,1.376c-0.013,0.016-0.704,0.853-0.718,0.868c-0.952,1.175-3.509-1.371-3.34-2.873
					c0.302-2.697,1.521-5.327,3.701-7.401c3.985-3.785,10.174-4.34,14.772-1.328c6.099,3.993,7.234,12.254,2.728,17.719
					c-1.26,1.527-2.817,2.662-4.52,3.393C1017.141,1004.842,1014.606,1002.743,1015.588,1001.241z"/>
			</g>
		</g>
		<g>
			<path style="fill:#FFB27D;" d="M1040.114,958.705c0,0-10.961-0.336-11.312,5.093c-0.351,5.43-1.204,13.772,4.302,13.453
				C1038.61,976.934,1054.053,964.47,1040.114,958.705z"/>
		</g>
		<g>
			<path style="fill:#758BEA;" d="M1078.446,969.482c0,0,69.161-62.974,95.925-27.694c6.982,9.204-8.183,20.124-19.085,21.812
				C1135.785,966.619,1103.529,956.529,1078.446,969.482z"/>
		</g>
		<g>
			<g>
				<path style="fill:#BDD1F9;" d="M1189.385,1000.197c0,23.967-25.904,44.882-64.325,55.978h-126.29
					c-38.42-11.097-64.324-32.012-64.324-55.978H1189.385z"/>
			</g>
			<g>
				<path style="fill:#A2C5FC;" d="M1195.672,1000.199H928.156c-3.086,0-5.61-2.525-5.61-5.611l0,0c0-3.086,2.524-5.61,5.61-5.61
					h267.516c3.086,0,5.611,2.525,5.611,5.61l0,0C1201.283,997.674,1198.758,1000.199,1195.672,1000.199z"/>
			</g>
		</g>
		<g>
			<path style="fill:#758BEA;" d="M1107.463,1011.455c0,0,4.645,26.105-8.104,33.214c-12.748,7.108-22.81-7.998-11.629-14.81
				C1098.909,1023.047,1103.366,1023.357,1107.463,1011.455z"/>
		</g>
		<g>
			<path style="fill:#758BEA;" d="M1108.409,988.977c0,0,35.173,4.687,48.998,31.022c13.826,26.334,24.811,63.295-3.444,68.958
				c-28.255,5.665-41.355-8.742-32.579-41.906C1133.781,1000.199,1108.409,988.977,1108.409,988.977z"/>
		</g>
		<g>
			<g>
				<path style="fill:#2C3A64;" d="M603.155,1410.597c0,0-12.382,11.476-9.967,19.629c2.416,8.154,13.591,13.591,15.101,23.556
					c1.509,9.966,7.551,15.402,12.986,15.402c5.435,0,25.915,0,25.915,0s4.002-7.014-5.663-9.127
					c-9.663-2.114-13.307-13.824-12.703-24.696c0.605-10.872-0.906-25.368-0.906-25.368l-20.535-4.832L603.155,1410.597z"/>
			</g>
			<g>
				<path style="fill:#2C3A64;" d="M755.059,1439.93c0,0-2.886,26.116,2.55,28.834h70.105c0,0,0.126-8.299-11.049-10.111
					c-11.173-1.811-30.803-8.455-34.124-23.253C779.219,1420.603,755.059,1439.93,755.059,1439.93z"/>
			</g>
			<g>
				<path style="fill:#35488B;" d="M813.792,1068.799c0,0-3.669,45.779-7.982,100.809c-5.861,74.753-12.911,166.575-13.607,183.97
					c-1.205,30.205-6.043,78.521-6.043,78.521s-11.47,11.479-34.428,6.642c0,0-20.457-68.974-26.301-141.951
					c-0.091-1.195-0.182-2.4-0.272-3.605c-5.436-74.291-13.888-230.728-13.888-230.728L813.792,1068.799z"/>
			</g>
			<g>
				<path style="fill:#2C3A64;" d="M813.792,1068.799c0,0-3.669,45.779-7.982,100.809l-80.379,127.182
					c-0.091-1.195-0.182-2.4-0.272-3.605c-5.436-74.291-13.888-230.728-13.888-230.728L813.792,1068.799z"/>
			</g>
			<g>
				<path style="fill:#35488B;" d="M797.031,1074.227c0,0-3.399,8.523-9.151,22.607c-13.438,32.821-39.723,95.883-65.746,151.765
					c-12.063,25.901-24.071,50.252-34.722,69.337c-43.487,77.931-57.084,99.667-57.084,99.667s-0.628-0.245-1.674-0.697
					c-4.514-1.9-17.011-7.426-22.729-12.497c-1.394-1.238-2.388-2.44-2.771-3.573c0,0,16.628-150.405,45.754-187.079
					c16.454-20.725,35.784-82.898,36.69-104.634c0.4-9.587,1.603-23.304,2.807-35.662c1.08-11.155,2.195-21.194,2.736-26.041
					c0.227-1.97,0.349-3.084,0.349-3.084l76.362,21.63L797.031,1074.227z"/>
			</g>
		</g>
		<g>
			<path style="fill:#2C3A64;" d="M781.491,1095.549c-34.199-1.782-49.396-5.582-68.979-10.376
				c-11.781-2.884-19.557-8.941-24.105-11.713c1.08-11.155,2.195-21.194,2.736-26.041l30.713,15.705L781.491,1095.549z"/>
		</g>
		<g>
			<path style="fill:#FFB27D;" d="M826.171,813.224c0,0,26.985,47.479,53.361,53.676c0,0-0.803-11.662-5.053-21.865
				c-1.358-3.26-0.744-7.01,1.482-9.75c1.065-1.31,2.06-2.56,2.988-3.744c6.641-8.509,9.797-13.716,9.797-13.716l-8.952-24.065
				l-6.073-16.328c-2.918,5.299-6.138,9.814-9.491,13.676C846.943,810.981,826.171,813.224,826.171,813.224z"/>
		</g>
		<g>
			<path style="fill:#ED975D;" d="M864.23,791.106c0,0-3.22,23.793,14.72,40.434c6.641-8.509,9.797-13.716,9.797-13.716
				l-8.952-24.065C870.197,790.833,864.23,791.106,864.23,791.106z"/>
		</g>
		<g>
			<path style="fill:#FFB27D;" d="M895.858,821.332c0,0-40.319-15.718-30.144-40.676c10.175-24.957,11.823-43.796,37.996-34.815
				c26.173,8.981,27.261,20.531,25.89,29.687C928.231,784.685,906.607,824.778,895.858,821.332z"/>
		</g>
		<g>
			<path style="fill:#F99746;" d="M872.8,927.028c-4.375,12.654-10.126,25.623-16.855,37.876c-1.324,2.424-2.615,4.81-3.835,7.182
				c-0.819,1.568-1.604,3.138-2.37,4.69c-14.712,29.665-21.492,55.375-24.42,75.577c-0.559,3.887-0.993,7.564-1.29,11.032
				c-1.325,14.816-139.896-33.431-135.433-54.155c2.946-13.648,6.972-27.993,10.737-40.212c5.49-17.9,10.405-31.252,10.405-31.252
				c25.918-61.685,62.715-94.891,91.369-112.425c5.194-3.189,10.109-5.856,14.659-8.07c17.413-8.54,29.265-10.668,29.265-10.668
				s5.928,29.633,31.341,41.381c0.034,0.086,3.974,16.087,3.99,16.157C884.618,879.374,881.236,902.678,872.8,927.028z"/>
		</g>
		<g>
			<path style="fill:#2B478B;" d="M859.927,734.295c-0.282-0.558-1.103-1.153-3.104-1.767c0,0,1.876-0.631,4.059-0.15
				c1.131-2.763,3.883-7.467,9.044-7.502c0,0-2.958,0.77-4.05,3.733c7.072-4.483,20.181-5.785,52.906,5.116
				c43.13,14.365,21.581,39.403,15.046,41.41c-6.537,2.007-18.571-10.874-29.396-12.634c-10.823-1.759-16.679,13.317-20.805,14.568
				c-4.127,1.251-1.78-2.18-6.101-5.616c-4.32-3.435-6.803,4.648-6.709,10.324c0.094,5.677-8.332,11.059-8.332,11.059
				s0,0-4.94-9.064c-4.941-9.065-3.597-41.969,1.124-47.891C859.086,735.358,859.501,734.826,859.927,734.295z"/>
		</g>
		<g>
			<path style="fill:#ED7D2B;" d="M787.369,904.506c0,0,4.643,35.125,20.329,61.706c15.688,26.581,22.636-14.792,22.636-14.792
				L787.369,904.506z"/>
		</g>
		<g>
			<path style="fill:#35488B;" d="M849.74,976.775c-14.712,29.665-21.492,55.375-24.42,75.577c-0.559,3.887-0.993,7.564-1.29,11.032
				c-1.325,14.816-0.574,25.728-0.018,31.933c1.43,16.176-120.164-15.06-136.426-38.451c-8.942-12.881,2.284-57.084,11.748-87.849
				c1.586,0.384,76.972,18.319,129.122-28.324L849.74,976.775z"/>
		</g>
		<g>
			<g>
				<path style="fill:#2C3A64;" d="M858.973,893.295l-7.507-14.983c0.018-0.262,0.819-26.441-14.886-41.798
					c-8.471-8.297-20.393-12.045-35.471-11.173c5.194-3.189,10.109-5.856,14.659-8.07c10.772,1.656,19.784,6.03,26.947,13.056
					C861.174,848.418,859.024,892.075,858.973,893.295z"/>
			</g>
		</g>
		<g>
			<path style="fill:#FFB27D;" d="M962.672,996.435c0,0,23.647-4.241,27.573-3.783c3.926,0.457,17.425,6.87,17.554,7.994
				c0.131,1.124-0.566,2.003-2.952,2.051c-2.386,0.047-10.174-1.331-9.722-0.358c0.452,0.973,22.804,6.477,22.838,11.029
				c0.034,4.553-12.727,12.406-23.198,12.477c-10.472,0.072-30.431-13.036-32.185-13.273
				C947.711,1010.562,962.672,996.435,962.672,996.435z"/>
		</g>
		<g>
			<path style="fill:#F99746;" d="M967.104,1006.07c0.463-4.667-4.432-9.635-4.432-9.635s-70.188-19.31-75.998-25.173
				c-5.81-5.862-32.718-99.203-32.718-99.203s-9.262-37.776-30.949-41.942c-18.848-3.619-31.873,5.705-40.396,16.636
				c-10.157,13.026-11.154,30.994-2.725,45.199c18.923,31.884,57.094,95.176,68.24,105.987
				c24.808,24.065,114.445,19.104,114.445,19.104S966.173,1015.445,967.104,1006.07z"/>
		</g>
	</g>
	<g>
		<g>
			<path style="fill:#163560;" d="M2278.598,780.706c0,0,32.306-9.811,51.354,8.657c19.049,18.469,15.298,39.668,42.473,38.018
				s33.382,8.342,29.87,23.968c-3.512,15.626,30.115,11.23,40.289,30.303c10.174,19.071,11.624,54.184-40.838,52.375
				c-52.461-1.81-75.721-30.037-98.183-18.313c-22.463,11.725-59.495-7.142-49.775-23.574c9.721-16.431-9.138-12.001-12.471-45.563
				C2237.985,813.014,2255.91,783.232,2278.598,780.706z"/>
		</g>
		<g>
			<path style="fill:#FFB27D;" d="M2235.225,870.888c0,0,1.739-13.835,8.451-19.921c6.664-6.044,14.456-8.815,16.161-4.729
				c1.706,4.085-3.242,15.509-4.913,19.133c-1.672,3.625-1.748,9.542-8.929,11.076
				C2238.814,877.981,2235.225,870.888,2235.225,870.888z"/>
		</g>
		<g>
			<g>
				<path style="fill:#F99746;" d="M2253.252,868.996l-10.654-8.552c-1.584-1.27-1.838-3.585-0.566-5.17l19.223-23.95
					c1.271-1.585,3.585-1.838,5.169-0.566l10.654,8.552c1.585,1.271,1.839,3.585,0.567,5.169l-19.224,23.951
					C2257.15,870.014,2254.836,870.267,2253.252,868.996z"/>
			</g>
			<g>
				<path style="fill:#8C9DF4;" d="M2253.134,866.755l-8.324-6.681c-1.36-1.091-1.577-3.078-0.485-4.439l17.777-22.151
					c1.092-1.36,3.08-1.578,4.439-0.486l8.324,6.681c1.359,1.092,1.578,3.079,0.485,4.44l-17.778,22.151
					C2256.481,867.629,2254.494,867.847,2253.134,866.755z"/>
			</g>
		</g>
		<g>
			<path style="fill:#8C9DF4;" d="M2346.162,887.441c-28.364-5.99-28.164-3.079-46.724-2.599c0,0-22.094,1.179-36.85,5.398
				c-24.692,7.061-44.377,33.598-44.377,33.598l30.937-47.392l-15.848-8.449c0,0-71.721,66.096-54.207,92.122
				c14.594,21.688,72.295-23.29,70.921-16.842c-0.017,0.078-0.03,0.149-0.04,0.214c-4.24,29.579,19.127,73.156,19.127,73.156
				l43.539,34.184l41.541-29.559h0.009l3.38-1.22c0,0,6.847-3.404,8.889-19.594c0.251-2.004,1.698-19.101,3.139-36.332
				c1.55-18.601,3.082-37.342,3.082-37.342L2346.162,887.441z"/>
		</g>
		<g>
			<path style="fill:#ED7D2B;" d="M2272.301,1026.274c0,0-16.383,47.905-13.474,82.979c1.759,21.196,30.225,171.933,31.817,181.715
				c1.502,9.221,21.958,128.585,21.958,128.585s-3.519,19.872,3.997,17.751c10.428-2.944,13.725-6.471,13.725-6.471
				s15.592-199.945,5.942-271.37c-9.649-71.424-9.763-133.189-9.763-133.189H2272.301z"/>
		</g>
		<g>
			<path style="fill:#F99746;" d="M2357.175,1024.416c0,0,30.558,41,33.405,68.716c2.85,27.716,4.471,125.07,10.539,152.089
				c6.069,27.02,28.368,79.016,28.368,163.29c0,0-2.317,4.83-9.475,7.403c-2.288,0.823-1.237-3.29-4.215-2.608
				c-5.901,1.354-53.897-119.155-56.591-124.578c-15.076-30.354-44.642-135.598-77.716-191.448
				c-7.94-13.408,4.872-66.729,4.872-66.729L2357.175,1024.416z"/>
		</g>
		<g>
			<path style="fill:#FFB27D;" d="M2311.497,895.164c5.447-2.467,7.827-6.522,6.644-12.41c-1.736-8.645-4.932-16.724-5.309-29.33
				l-1.818,0.423l-30.575,7.126c0,0,1.354,18.939,1.359,19.015C2282.615,892.249,2285.586,906.894,2311.497,895.164z"/>
		</g>
		<g>
			<path style="fill:#E8945B;" d="M2280.438,860.973c0,0,1.024,9.663,1.351,18.787c17.208-1.063,25.787-17.08,29.225-25.913
				L2280.438,860.973z"/>
		</g>
		<g>
			<path style="fill:#FFB27D;" d="M2274.976,869.806c0,0,40.774-0.693,39.952-26.077c-0.822-25.387,3.887-42.572-22.182-43.203
				c-26.067-0.631-30.81,9.22-32.596,17.759C2258.363,826.825,2264.348,869.332,2274.976,869.806z"/>
		</g>
		<g>
			<path style="fill:#163560;" d="M2272.396,801.731c0,0,13.697,33.139,33.16,37.454c19.463,4.315,27.659-1.135,27.659-1.135
				s-15.194-11.262-18.954-31.685C2314.262,806.365,2281.347,785.44,2272.396,801.731z"/>
		</g>
		<g>
			<path style="fill:#163560;" d="M2277.625,800.312c0,0-9.208,3.797-12.816,10.726c-3.531,6.775-6.432,8.965-5.328,19.744
				c0,0-10.237-15.769-0.024-29.028C2270.287,787.692,2277.625,800.312,2277.625,800.312z"/>
		</g>
		<g>
			<path style="fill:#6980E2;" d="M2354.182,1021.273h0.009l3.38-1.22c0,0,6.847-3.404,8.889-19.594
				c0.251-2.004,1.698-19.101,3.139-36.332c0,0-15.354-15.282-20.048-6.151c-4.695,9.125,6.149,26.34,2.168,36.512
				C2347.726,1004.662,2340.832,1018.309,2354.182,1021.273z"/>
		</g>
		<g>
			<path style="fill:#233862;" d="M2269.102,1016.648c0,0,8.041,6.362,24.018,6.684c19.082,0.385,66.368-4.865,66.368-4.865
				s2.102,5.871,2.017,12.068c0,0-57.753,14.567-91.213,2.127C2270.291,1032.662,2265.975,1024.543,2269.102,1016.648z"/>
		</g>
		<g>
			<g>
				<path style="fill:#FFFFFF;" d="M2288.541,1039.777c-4.802,0-8.708-4.422-8.708-9.856s3.906-9.854,8.708-9.854
					s8.707,4.42,8.707,9.854S2293.343,1039.777,2288.541,1039.777z M2288.541,1022.952c-3.211,0-5.821,3.126-5.821,6.969
					c0,3.844,2.61,6.97,5.821,6.97c3.209,0,5.821-3.126,5.821-6.97C2294.362,1026.078,2291.75,1022.952,2288.541,1022.952z"/>
			</g>
		</g>
		<g>
			<path style="fill:#FFB93E;" d="M2348.732,1268.73c0,0,40.905-9.063,63.76-19.818c0,0,23.086,129.358,31.859,173.58
				c1.364,6.883,4.821,17.3,6.149,23.504c2.476,11.563-0.324,22.005-0.324,22.005h-70.804c0,0,0.447-10.891,12.884-14.924
				c12.436-4.033,25.433-12.664,25.097-18.042S2348.732,1268.73,2348.732,1268.73z"/>
		</g>
		<g>
			<path style="fill:#FFB93E;" d="M2281.682,1272.147l60.496-0.448c0,0-5.072,147.433-2.76,163.117
				c2.313,15.684,2.76,33.185,2.76,33.185h-77.973c0,0-1.009-9.157,11.428-16.578c12.436-7.42,26.551-1.035,31.256-11.453
				C2311.595,1429.551,2281.682,1272.147,2281.682,1272.147z"/>
		</g>
		<g>
			<path style="fill:#FFFFFF;" d="M2276.889,854.641c0.293,1.891-0.73,3.619-2.285,3.859c-1.556,0.241-3.054-1.097-3.346-2.988
				c-0.293-1.891,0.729-3.619,2.285-3.859C2275.098,851.411,2276.596,852.749,2276.889,854.641z"/>
		</g>
		<g>
			<path style="fill:#FFB27D;" d="M2478.81,969.51c0,0,7.336-13.72,14.169-14.594c6.832-0.874,19.206-5.576,18.42-2.946
				c-0.785,2.631-8.634,3.597-9.258,5.189c-0.624,1.593,12.024,2.752,15.604,2.685c3.577-0.067,11.934-1.079,11.84,0.722
				c-0.093,1.801-14.275,10.507-24.845,10.438s-23.15,5.166-23.15,5.166L2478.81,969.51z"/>
		</g>
		<g>
			<path style="fill:#8C9DF4;" d="M2347.836,944.883c0,0,40.72,63.925,63.932,69.879c18.287,4.691,72.195-30.742,72.195-30.742
				c3.155-11.806-2.614-18.684-2.614-18.684s-54.615,12.35-59.517,10.834c-19.733-6.101-37.481-55.503-49.152-72.006
				c-9.787-13.841-26.518-16.723-26.518-16.723L2347.836,944.883z"/>
		</g>
		<g>
			<polygon style="fill:#8C9DF4;" points="2216.397,918.613 2237.837,903.862 2227.081,927.72 2206.064,929.646 			"/>
		</g>
	</g>
	<g>
		<path style="fill:#8C9DF4;" d="M1333.538,1253.312c0,0-68.827,15.748-68.827,60.933c0,0,0.695,22.75,25.395,16.463
			C1309.37,1325.804,1287.827,1299.035,1333.538,1253.312z"/>
	</g>
	<g>
		<path style="fill:#8C9DF4;" d="M1329.381,1247.532c0,0-48.62-9.696-53.094,1.666
			C1269.387,1266.725,1303.128,1243.656,1329.381,1247.532z"/>
	</g>
	<g>
		<path style="fill:#233862;" d="M2649.373,1474.207H131.388c-1.515,0-2.753-1.238-2.753-2.753v-0.7
			c0-1.514,1.238-2.753,2.753-2.753h2517.985c1.514,0,2.754,1.239,2.754,2.753v0.7
			C2652.127,1472.969,2650.887,1474.207,2649.373,1474.207z"/>
	</g>
	<g>
		<path style="fill:#8C9DF4;" d="M1384.152,1249.766c0,0,29.511,34.006,17.791,55.477c-1.64,3.003-5.093,8.214-14.551,4.799
			c-9.457-3.416,2.014-15.827,1.576-31.524C1388.621,1266.068,1384.152,1249.766,1384.152,1249.766z"/>
	</g>
	<g>
		<g>
			<path style="fill:#FFB27D;" d="M1358.946,1243.117c7.681,1.209,25.548-4.126,26.854-4.253
				c11.083-1.063,0.394-11.969,0.394-11.969s-17.417-3.825-20.339-3.603c-0.955,0.076-2.54,0.395-4.253,0.814l2.993,2.919
				c0,0-14.515,1.53-14.667,4.904C1349.768,1235.312,1352.244,1242.063,1358.946,1243.117z"/>
		</g>
		<g>
			<path style="fill:#FFB27D;" d="M1365.854,1223.293l-12.337,1.501c0,3.24,9.491,2.18,9.956,3.782
				c0.464,1.604,2.652-2.234,2.652-2.234L1365.854,1223.293z"/>
		</g>
		<g>
			<path style="fill:#FFB27D;" d="M1480.931,1224.286c0,0-16.604,1.621-15.531,3.382c1.071,1.762,8.349,2.528,8.349,2.528
				l5.838-3.754L1480.931,1224.286z"/>
		</g>
		<g>
			<path style="fill:#E58638;" d="M1382.774,1232.293c-2.669-7.719,1.051-10.127,1.051-10.127s76.063-36.071,82.284-40.045
				c6.221-3.973,48.035-80.131,48.035-80.131s15.502-31.141,35.244-30.515c17.156,0.544,26.689,11.238,31.979,22.451
				c6.303,13.361,3.644,29.234-6.502,39.973c-22.775,24.103-68.515,71.827-80.364,79.071
				c-26.373,16.124-105.405,29.163-105.405,29.163S1384.871,1238.355,1382.774,1232.293z"/>
		</g>
		<g>
			<path style="fill:#2B478B;" d="M1393.903,1314.954c11.478,13.228,35.688,21.779,82.396,23.946
				c3.749,0.176,7.524,0.321,11.313,0.437c3.901,0.119,7.811,0.202,11.72,0.254c12.694,0.177,25.324,0.031,37.362-0.374
				c11.669-0.399,22.785-1.039,32.856-1.875c19.696-1.637,35.421-4.021,43.543-6.755c2.433-0.815,4.183-1.662,5.157-2.535
				c0.834-0.743,1.509-1.616,2.019-2.608c2.946-5.465,1.406-14.417-2.152-24.288c-5.188-14.366-14.712-30.654-21.123-40.848
				c-1.285-2.037-2.431-3.818-3.406-5.305c-1.954-2.992-3.169-4.743-3.169-4.743s-21.817,2.025-51.687,5.896
				c-6.094,0.785-12.529,1.657-19.176,2.598c-64.221,9.082-128.213,25.406-128.149,47.066
				C1391.414,1309.119,1391.197,1311.836,1393.903,1314.954z"/>
		</g>
		<g>
			<path style="fill:#2C3A64;" d="M1473.424,1338.639c3.903,0.119,21.999,0.9,25.908,0.952c12.694,0.177,25.324,0.031,37.362-0.374
				l11.319-45.606C1530.507,1318.029,1479.052,1337.064,1473.424,1338.639z"/>
		</g>
		<g>
			<path style="fill:#2C3A64;" d="M1511.253,1471.104h-62.258c0.98-2.372,3.354-5.462,9.132-6.473
				c9.806-1.72,26.829-7.024,24.647-21.178c-2.212-14.347,21.669-16.197,21.669-16.197S1514.379,1465.643,1511.253,1471.104z"/>
		</g>
		<g>
			<path style="fill:#2B478B;" d="M1392.893,1312.609c0,0,77.234,121.503,83.657,135.942c0,0,26.277,2.445,32.599-16.327
				c0,0-45.91-128.225-66.087-138.792C1422.885,1282.866,1392.893,1312.609,1392.893,1312.609z"/>
		</g>
		<g>
			<g>
				<path style="fill:#FFB27D;" d="M1548.643,1056.804c0,0-26.595,36.397-50.301,38.346c0,0,1.703-7.707,5.507-15.204
					c2.443-4.816,2.391-10.513-0.279-15.207c-0.04-0.071-0.081-0.142-0.12-0.212c-4.658-8.251-6.721-13.184-6.721-13.184
					l10.903-19.728l2.252-10.605c1.844,4.979,4.001,9.573,6.41,13.362C1528.716,1053.876,1548.643,1056.804,1548.643,1056.804z"/>
			</g>
			<g>
				<path style="fill:#ED975D;" d="M1517.332,1034.179c0,0,3.858,18.235-13.883,30.348c-4.658-8.251-6.721-13.184-6.721-13.184
					l10.903-19.728C1516.346,1030.324,1517.332,1034.179,1517.332,1034.179z"/>
			</g>
			<g>
				<path style="fill:#FFB27D;" d="M1493.41,1062.34c0,0,33.361-18.175,21.724-38.775c-11.638-20.601-15.17-36.821-36.962-26.089
					c-21.792,10.733-21.454,20.911-19.242,28.732S1484.433,1066.536,1493.41,1062.34z"/>
			</g>
			<g>
				<path style="fill:#2B478B;" d="M1515.015,982.549c0.185-0.518,0.832-1.128,2.508-1.885c0,0-1.705-0.34-3.553,0.321
					c-1.292-2.279-4.211-6.07-8.71-5.527c0,0,2.662,0.342,3.942,2.802c-6.657-3.117-18.218-2.792-45.502,10.342
					c-35.959,17.309-14.409,36.714-8.494,37.734c5.916,1.021,14.962-11.536,24.191-14.272c9.229-2.736,16.006,9.742,19.739,10.371
					c3.731,0.63,1.307-2.097,4.687-5.568c3.38-3.474,6.441,3.289,6.991,8.243c0.551,4.954,6.518,9.069,6.518,9.069
					s1.968-0.367,5.263-8.81c3.294-8.443-1.538-36.947-6.308-41.579C1515.865,983.381,1515.444,982.965,1515.015,982.549z"/>
			</g>
		</g>
		<g>
			<path style="fill:#233862;" d="M1714.201,1431.382c0,0,7.761,11.776,9.565,15.592c1.804,3.817-1.736,11.938-7.06,13.16
				c-4.691,1.078-5.394,9.4-5.394,9.4h22.75c2.408,0,4.58-1.327,5.509-3.369c3.208-7.063,3.941-16.243,4.587-19.315
				c1.356-6.457,4.045-11.875,2.857-18.453c-1.184-6.555-12.389-10.347-32.815-10.285
				C1691.762,1418.18,1714.201,1431.382,1714.201,1431.382z"/>
		</g>
		<g>
			<path style="fill:#F99746;" d="M1647.317,1289.375c-17.155,18.18-143.13-19.43-132.571-29.012
				c2.686-2.435,1.767-5.358,2.858-9.28c5.227-18.596-5.178-50.415-9.64-62.75c-1.043-2.86-1.759-4.666-1.894-5.033
				c-4.261-11.515-7.554-23.502-9.708-35.085c-4.154-22.228-4.076-42.899,1.604-55.563c0.038-0.068,0.049-0.126,0.086-0.175
				c23.6-6.897,36.592-41.614,36.592-41.614s74.758,21.232,101.893,127.906c0,0,1.4,6.801,3.129,17.012h0.01
				c0.522,3.129,1.083,6.587,1.643,10.268c2.898,18.981,4.58,43.324,6.299,61.446c0.066,0.628,0.125,1.266,0.192,1.923
				C1648.67,1277.232,1650.167,1286.352,1647.317,1289.375z"/>
		</g>
		<g>
			<path style="fill:#2B478B;" d="M1548.119,1271.336c0,0,12.56,1.654,37.887,3.52c26.246,1.944,54.066,6.082,58.588,14.898
				c1.496,2.921,0.453,10.308-2.473,20.519c-6.473,22.569-22.16,58.909-40.069,91.13c46.01,2.663,108.605,12.821,108.605,12.821
				c10.239,11.577,5.95,25.126,5.95,25.126c-3.284,0.026-13.156,1.421-26.632,3.596c-48.821,7.857-108.275,24.018-145.145,24.018
				c-8.064,0-14.099-5.727-16.552-13.212v-0.009C1513.133,1407.635,1548.119,1271.336,1548.119,1271.336z"/>
		</g>
		<g>
			<path style="fill:#2C3A64;" d="M1642.121,1313.698c-25.396-0.802-89.094-32.071-88.051-32.322
				c11.863-2.917,22.469-4.937,31.936-6.211c26.246,2.116,54.066,6.617,58.588,16.21
				C1646.09,1294.553,1645.047,1302.589,1642.121,1313.698z"/>
		</g>
		<g>
			<path style="fill:#2B478B;" d="M1547.184,1056.063c0,0-31.955,6.649-35.075,34.652c-2.273,20.395,13.917,66.575,13.917,66.575
				l10.354-4.246c0,0-19.573-57.019-16.563-66.72c3.861-12.438,22.234-31.045,39.131-23.612L1547.184,1056.063z"/>
		</g>
		<g>
			<path style="fill:#2B478B;" d="M1647.317,1289.375c-17.155,18.18-145.844-19.03-135.286-28.613
				c2.685-2.434,4.481-5.757,5.573-9.679c5.227-18.596-5.178-50.415-9.64-62.75c-1.043-2.86-10.882-36.738-11.018-37.104
				l36.227-7.845c0,0,10.252,17.649,23.563,26.711c17.445,11.892,45.662,25.628,82.929,25.687h0.01
				c0.522,3.129,1.083,6.587,1.643,10.268c2.898,18.981,4.58,43.324,6.299,61.446c0.066,0.628,0.125,1.266,0.192,1.923
				C1648.67,1277.232,1650.167,1286.352,1647.317,1289.375z"/>
		</g>
		<g>
			<g>
				<g>
					<path style="fill:#BDD1F9;" d="M1374.177,1468.001h-24.942v-277.94c0-19.44-15.814-35.256-35.255-35.256h-64.933v-24.941
						h64.933c33.192,0,60.197,27.004,60.197,60.197V1468.001z"/>
				</g>
			</g>
			<g>
				<rect x="1300.317" y="1126.97" style="fill:#91B5F8;" width="4.503" height="31.87"/>
			</g>
			<g>
				
					<rect x="1360.42" y="1194.828" transform="matrix(-1.836970e-16 1 -1 -1.836970e-16 2573.4351 -151.9097)" style="fill:#91B5F8;" width="4.504" height="31.87"/>
			</g>
			<g>
				
					<rect x="1360.42" y="1248.334" transform="matrix(-1.836970e-16 1 -1 -1.836970e-16 2626.9419 -98.4028)" style="fill:#91B5F8;" width="4.504" height="31.87"/>
			</g>
			<g>
				<rect x="1346.045" y="1430.776" style="fill:#91B5F8;" width="30.137" height="37.225"/>
			</g>
		</g>
		<g>
			<g>
				<g>
					<path style="fill:#2B478B;" d="M1377.966,1203.141l117.163,46.043c2.343,0.92,4.986-0.232,5.908-2.574l0.773-1.97
						c0.776-1.978-0.196-4.21-2.174-4.987l-117.822-46.302L1377.966,1203.141z"/>
				</g>
				<g>
					<g>
						<path style="fill:#2B478B;" d="M1366.594,1199.296l2.607,1.023l0.788-5.934c0.678-5.098,5.807-8.313,10.39-6.512
							l34.223,13.448l3.393-8.633l-43.34-17.032c-4.219-1.658-8.97,1.161-9.815,5.825l-1.965,10.843
							C1362.331,1195.32,1363.885,1198.23,1366.594,1199.296z"/>
					</g>
				</g>
				<g>
					
						<rect x="1391.916" y="1191.806" transform="matrix(-0.9307 -0.3657 0.3657 -0.9307 2271.3257 2826.9917)" style="fill:#2B478B;" width="22.988" height="13.141"/>
				</g>
			</g>
			<g>
				<g>
					<path style="fill:#6C7AFF;" d="M1408.827,1201.233c0.293-0.746-0.073-1.587-0.818-1.88s-1.587,0.074-1.88,0.818
						c-0.292,0.746,0.075,1.587,0.819,1.88C1407.693,1202.345,1408.534,1201.979,1408.827,1201.233z"/>
				</g>
				<g>
					<path style="fill:#6C7AFF;" d="M1400.194,1197.84c0.293-0.744-0.074-1.586-0.818-1.879c-0.745-0.293-1.587,0.074-1.88,0.819
						s0.074,1.586,0.819,1.879S1399.901,1198.586,1400.194,1197.84z"/>
				</g>
			</g>
		</g>
		<g>
			<path style="fill:#FFB27D;" d="M1505.532,1222.824c0,0-5.735,1.347-11.895,1.551c-5.537,0.184-11.397-0.842-14.052,0.266
				c-5.608,2.338-23.379,14.55-14.8,19.78c8.579,5.231,17.425,3.396,23.285-1.354c5.861-4.751,21.798-5.137,21.798-5.137
				L1505.532,1222.824z"/>
		</g>
		<g>
			<path style="fill:#F99746;" d="M1565.256,1081.756c38.53,11.117,61.994,103.585,56.566,131.259
				c-5.426,27.673-114.186,29.119-114.186,29.119s-6.11-4.782-6.83-9.722c-0.92-6.305,0.065-9.195,0.065-9.195
				s68.771-18.668,70.343-26.606s-33.104-50.026-32.579-72.854S1544.265,1075.699,1565.256,1081.756z"/>
		</g>
	</g>
	<g>
		<path style="fill:#8C9DF4;" d="M1418.304,1468.001c0,0-14.905-23.577-57.19-18.612c-42.286,4.964-72.409,27.695-173.287,2.319
			c-100.879-25.377-91.771,20.158-149.216,10.351c-57.444-9.807-82.664,5.942-82.664,5.942H1418.304z"/>
	</g>
	<g>
		<path style="fill:#8C9DF4;" d="M1311.613,1126.97c0,0,11.552-25.828,33.799-21.122c0,0,5.705,1.426,4.278,7.273
			C1348.265,1118.969,1330.865,1111.011,1311.613,1126.97z"/>
	</g>
</g>
</svg>
